<svg width="500" height="500" viewBox="0 0 500 500" fill="none" xmlns="http://www.w3.org/2000/svg">
<g clip-path="url(#clip0_36_367)">
<g opacity="0.87">
<path d="M465.854 295.553C467.741 285.706 473.047 258.022 463.64 227.914C454.58 198.918 435.052 178.456 420.213 169.918C414.726 166.761 408.633 164.069 402.094 163.292C394.253 162.36 386.522 164.246 378.66 164.241C357.498 164.227 339.148 150.808 326.14 136.72C313.131 122.633 302.408 106.581 284.881 96.1759C270.473 87.6229 252.897 83.7869 235.716 80.6779C223.403 78.4499 210.733 76.4879 198.503 77.9679C183.417 79.7939 170.316 86.7159 159.08 94.7119C138.665 109.24 122.817 127.879 113.214 148.659C105.43 165.502 103.049 172.066 96.938 186.127C70.109 247.852 31.8 249.146 30.308 282.851C28.806 316.786 65.788 357.29 89.299 360.651C92.534 361.113 101.63 362.397 109.71 368.854C115.575 373.542 117.651 380.342 119.455 386.736C122.325 396.911 125.196 407.085 128.066 417.26C129.173 421.185 130.332 425.211 133.09 428.632C136.603 432.988 142.327 435.881 148.108 438.116C171.244 447.061 198.677 447.528 221.08 439.358C238.796 432.898 254.988 421.11 274.836 422.72C290.625 424 303.851 433.563 318.856 438.243C337.723 444.127 358.261 442.003 377.761 439.79C383.19 439.174 388.768 438.517 393.414 436.301C404.652 430.941 406.737 418.807 411.712 409.004C426.997 378.886 455.986 348.141 461.479 317.159C463.502 305.75 464.738 301.377 465.854 295.553Z" fill="#F598D3"/>
</g>
<mask id="mask0_36_367" style="mask-type:luminance" maskUnits="userSpaceOnUse" x="0" y="0" width="500" height="500">
<path d="M500 0H0V500H500V0Z" fill="white"/>
</mask>
<g mask="url(#mask0_36_367)">
<path d="M209.591 327.939C209.591 327.939 207.226 328.76 205.17 330.669C165.987 367.048 156.692 436.994 156.692 436.994C154.535 453.223 155.203 461.313 160.062 466.917C167.789 475.83 181.608 474.474 190.504 468.196C199.964 461.52 205.966 450.805 211.214 440.14C221.75 418.73 230.388 396.193 236.991 372.886C239.762 363.104 242.205 355.8 239.195 347.36C235.478 336.939 225.779 330.274 219.257 328.273C217.452 327.719 213.616 326.542 209.591 327.939Z" fill="#945041"/>
<path d="M232.294 311.966C228.894 307.728 214.198 313.714 207.001 317.512C199.749 321.338 194.973 325.537 191.327 329.035C184.036 336.032 177.307 343.792 172.768 352.821C169.401 359.517 167.291 366.842 166.579 374.303C166.5 375.131 166.46 376.042 166.954 376.711C167.477 377.419 168.428 377.63 169.295 377.788C181.412 380 193.572 381.978 205.765 383.718C206.924 383.883 208.16 384.036 209.219 383.536C211.278 382.564 211.671 379.672 211.835 378.702C213.152 370.889 219.917 344.146 224.431 332.052C229.272 319.078 234.569 314.802 232.294 311.966Z" fill="#6974BF"/>
<path d="M315.293 363.019C315.293 363.019 316.777 364.904 319.099 366.242C363.35 391.735 426.787 382.356 426.787 382.356C441.506 380.18 448.271 377.554 451.518 371.848C456.681 362.773 450.981 350.896 442.645 344.61C433.78 337.925 422.562 335.314 411.634 333.357C389.696 329.428 367.407 327.46 345.119 327.486C335.765 327.497 328.658 327.174 322.358 331.959C314.579 337.867 312.003 348.12 312.414 354.39C312.527 356.124 312.769 359.812 315.293 363.019Z" fill="#945041"/>
<path d="M257.4 309.807C246.39 310.42 242.405 309.096 233.43 310.592C228.053 311.488 225.37 311.946 222.431 313.664C215.505 317.71 212.718 326.141 210.479 333.843C205.719 350.215 200.958 366.586 196.198 382.958C194.638 388.323 193.068 393.741 192.72 399.317C192.456 403.547 192.9 407.789 192.89 412.028C192.879 416.548 192.35 421.049 191.822 425.538C188.779 451.417 185.717 477.394 179.131 502.606C200.106 514.234 218.706 520.225 231.765 523.503C252.676 528.752 269.619 529.615 286.641 530.483C304.745 531.405 319.905 530.933 330.729 530.274C328.464 483.518 326.207 436.51 331.62 390.013C331.756 388.848 331.919 387.622 332.625 386.685C333.82 385.099 336.08 384.892 338.064 384.821C350.923 384.362 363.781 383.902 376.64 383.443C377.508 383.412 378.469 383.341 379.072 382.716C379.678 382.086 379.707 381.117 379.701 380.243C379.561 360.906 379.421 341.568 379.281 322.23C379.276 321.497 379.261 320.727 378.9 320.088C378.183 318.82 376.532 318.536 375.846 318.415C298.842 304.826 269.036 308.582 269.036 308.582C265.766 309.089 261.848 309.559 257.4 309.807Z" fill="#6974BF"/>
<path d="M220.826 199.012C215.952 187.194 216.176 173.372 221.429 161.718C226.682 150.064 236.891 140.743 248.974 136.569C265.476 130.868 283.516 134.691 300.8 137.16C305.837 137.88 311.007 138.514 315.538 140.83C323.719 145.012 328.316 153.825 331.896 162.287C337.674 175.945 342.219 190.443 342.067 205.272C341.915 220.101 336.531 235.39 325.216 244.976" fill="#0C0726"/>
<path d="M291.045 137.404C293.169 127.531 301.132 116.856 309.831 111.728C318.531 106.599 328.59 104.249 338.596 102.884C348.444 101.54 359.158 101.264 367.549 106.591C376.496 112.271 381.468 123.539 391.414 127.196C396.033 128.894 401.102 128.673 405.975 129.36C410.848 130.047 416.056 132.058 418.242 136.467C420.501 141.022 418.645 146.791 415.048 150.384C411.451 153.977 406.481 155.808 401.584 157.177C406.311 159.732 411.086 163.2 412.583 168.36C414.08 173.52 410.291 180.248 404.949 179.673C406.36 186.364 410.099 192.541 415.373 196.895C418.459 199.443 422.158 201.407 426.141 201.791C435.445 202.688 443.164 195.209 451.675 191.345C460.668 187.263 471.432 187.288 480.406 191.413C481.437 191.887 482.482 192.443 483.156 193.357C483.941 194.423 484.104 195.814 484.178 197.136C484.979 211.329 476.511 227.001 462.536 229.607C469.421 232.413 476.457 235.311 481.98 240.288C487.503 245.265 491.305 252.819 489.813 260.102C488.596 266.043 484.062 270.878 478.802 273.895C473.542 276.912 467.558 278.379 461.665 279.81C461.043 285.363 465.468 290.68 464.425 296.169C463.396 301.584 457.681 304.557 452.623 306.748C442.541 311.115 432.152 315.552 421.17 315.875C410.188 316.198 398.324 311.442 393.424 301.608C386.127 306.161 378.486 310.836 369.925 311.664C358.588 312.761 347.647 306.852 339.073 299.354C322.008 284.431 311.43 262.331 310.512 239.68C310.323 235.023 310.522 230.331 309.807 225.726C308.97 220.334 306.909 215.221 304.906 210.146L291.045 137.404Z" fill="#0C0726"/>
<path d="M248.107 300.353C254.357 309.683 257.354 321.147 256.47 332.342C256.379 333.496 256.284 334.778 257.002 335.685C257.619 336.465 258.665 336.737 259.64 336.933C264.137 337.838 268.759 338.117 273.332 337.76C274.427 337.674 275.614 337.508 276.378 336.719C277.013 336.064 277.217 335.116 277.392 334.221C279.801 321.884 281.645 309.436 282.917 296.93" fill="#945041"/>
<g opacity="0.28">
<path d="M280.609 315.341C277.504 317.284 274.284 319.013 270.863 320.321C266.226 322.092 261.124 323 256.236 322.457C255.3 314.585 252.508 306.934 248.09 300.341L282.907 296.915C282.281 303.07 281.517 309.222 280.609 315.341Z" fill="#0C0726"/>
</g>
<path d="M215.893 229.468C213.332 223.191 206.293 219.069 199.566 219.907C192.839 220.745 187.026 226.468 186.084 233.182C185.19 239.554 188.399 245.975 193.079 250.391C197.759 254.807 203.758 257.532 209.742 259.897" fill="#945041"/>
<g opacity="0.09">
<path d="M215.893 229.468C213.332 223.191 206.293 219.069 199.566 219.907C192.839 220.745 187.026 226.468 186.084 233.182C185.19 239.554 188.399 245.975 193.079 250.391C197.759 254.807 203.758 257.532 209.742 259.897" fill="#0C0726"/>
</g>
<g opacity="0.27">
<path d="M191.466 233.364C193.057 232.262 194.985 231.867 196.876 231.909C198.774 231.964 200.659 232.484 202.342 233.376C204.027 234.266 205.513 235.539 206.621 237.081C207.715 238.624 208.466 240.446 208.438 242.384C206.846 241.305 205.53 240.377 204.203 239.539C202.889 238.699 201.6 237.952 200.286 237.247C198.969 236.546 197.628 235.896 196.196 235.276C194.757 234.644 193.251 234.074 191.466 233.364Z" fill="#0C0726"/>
<path d="M205.196 238.487C204.398 239.528 203.947 240.27 203.535 240.951C203.128 241.62 202.783 242.203 202.402 242.767C202.03 243.337 201.625 243.878 201.162 244.509C200.691 245.15 200.176 245.848 199.512 246.984C198.383 246.274 197.866 245.024 197.786 243.805C197.712 242.574 198.074 241.339 198.757 240.329C199.433 239.314 200.437 238.51 201.603 238.109C202.759 237.72 204.11 237.72 205.196 238.487Z" fill="#0C0726"/>
</g>
<path d="M260.668 167.267C258.39 167.365 234.02 168.753 221.905 186.122C219.464 189.622 217.298 194.904 215.211 205.963C212.076 222.577 209.421 239.281 207.249 256.048C206.429 262.375 205.685 268.858 207.14 275.099C209.411 284.84 216.891 292.892 225.653 298.177C236.929 304.979 246.948 307.7 254.371 308.985C261.643 310.243 272.494 312.121 284.769 308.859C310.419 302.043 321.836 278.218 322.789 276.147C330.112 260.226 327.372 246.339 322.15 219.862C319.082 204.31 317.203 195.419 309.328 186.671C298.314 174.437 282.774 170.486 278.379 169.368C274.597 168.407 268.589 166.928 260.668 167.267Z" fill="#945041"/>
<path d="M319.188 233.797C321.589 227.457 328.521 223.158 335.268 223.826C342.015 224.493 347.97 230.067 349.082 236.755C350.138 243.103 347.092 249.603 342.525 254.136C337.958 258.669 332.03 261.545 326.108 264.061" fill="#945041"/>
<g opacity="0.27">
<path d="M343.813 237.178C342.195 236.116 340.257 235.77 338.367 235.86C336.471 235.963 334.6 236.53 332.94 237.465C331.279 238.397 329.825 239.708 328.757 241.278C327.702 242.849 326.998 244.688 327.075 246.625C328.64 245.506 329.931 244.545 331.237 243.674C332.53 242.801 333.799 242.021 335.095 241.284C336.394 240.55 337.718 239.866 339.134 239.21C340.555 238.541 342.047 237.934 343.813 237.178Z" fill="#0C0726"/>
<path d="M330.218 242.647C331.042 243.667 331.512 244.398 331.941 245.068C332.365 245.727 332.725 246.301 333.12 246.854C333.506 247.414 333.925 247.945 334.404 248.564C334.891 249.192 335.424 249.878 336.116 250.996C337.226 250.258 337.712 248.994 337.761 247.775C337.804 246.543 337.411 245.317 336.702 244.325C336 243.328 334.976 242.549 333.801 242.178C332.634 241.819 331.284 241.853 330.218 242.647Z" fill="#0C0726"/>
</g>
<path d="M237.213 275.604C239.672 279.479 242.958 282.807 246.76 285.382C248.928 283.302 251.37 281.502 254.061 280.174C255.797 279.325 257.62 278.677 259.479 278.155C269.285 275.433 280.117 276.734 289.061 281.571C291.808 278.871 294.078 275.562 294.83 271.786C295.644 267.728 294.392 263.092 291.068 260.633C289.756 259.654 288.299 259.104 286.762 258.845C286.171 259.735 284.988 260.372 283.932 260.773C274.249 264.531 264.047 266.958 253.705 267.96C251.482 268.175 249.219 268.325 247.049 267.835C243.669 267.067 240.923 264.896 238.468 262.379L237.347 262.319L236.538 263.184C233.381 266.369 234.814 271.811 237.213 275.604Z" fill="#0C0726"/>
<path d="M246.76 285.382C251.094 288.31 256.079 290.256 261.267 290.922C271.013 292.177 281.238 288.892 288.421 282.197C288.638 281.997 288.853 281.788 289.06 281.571C280.116 276.734 269.284 275.433 259.478 278.155C257.619 278.677 255.797 279.325 254.06 280.174C251.37 281.502 248.928 283.303 246.76 285.382Z" fill="#F598D3"/>
<path d="M238.466 262.379C240.922 264.896 243.668 267.067 247.047 267.835C249.218 268.325 251.48 268.176 253.703 267.96C264.045 266.958 274.247 264.531 283.93 260.773C284.986 260.372 286.169 259.734 286.76 258.845C282.491 258.101 277.576 259.619 273.152 260.714C261.934 263.513 250.219 263.022 238.665 262.388C238.597 262.386 238.536 262.382 238.466 262.379Z" fill="white"/>
<path opacity="0.28" d="M254.866 221.563C254.171 224.725 253.616 227.736 252.92 230.691C252.575 232.166 252.221 233.626 251.825 235.07C251.454 236.495 251.019 237.778 250.421 238.623C250.136 239.051 249.841 239.31 249.543 239.471C249.45 239.511 249.424 239.541 249.274 239.594C249.138 239.646 248.997 239.69 248.855 239.734C248.567 239.82 248.263 239.88 247.897 239.963C247.53 240.046 247.09 240.115 246.507 240.309C245.933 240.491 245.257 240.878 244.8 241.353C244.343 241.802 243.975 242.396 243.768 242.929C243.54 243.48 243.459 244.013 243.394 244.538C243.252 246.597 243.98 248.585 245.463 249.885C246.199 250.522 247.104 250.924 247.989 251.018C248.872 251.121 249.723 250.994 250.469 250.673C249.676 250.519 248.948 250.261 248.353 249.886C247.759 249.503 247.319 249.026 247.033 248.487C246.449 247.432 246.391 246.101 246.708 245.091C246.878 244.589 247.135 244.256 247.329 244.166C247.441 244.109 247.472 244.132 247.639 244.092C247.799 244.061 248.13 244.03 248.527 243.99C248.927 243.954 249.388 243.88 249.852 243.781C250.085 243.728 250.318 243.671 250.55 243.602C250.77 243.543 251.101 243.415 251.364 243.303C252.467 242.784 253.333 241.942 253.923 241.087C255.088 239.348 255.498 237.555 255.772 235.948C256.044 234.348 256.203 232.73 256.241 231.111C256.308 227.876 255.938 224.627 254.866 221.563Z" fill="#0C0726"/>
<path d="M254.36 162.901C260.605 177.033 261.564 195.295 250.838 206.416C249.66 207.638 248.309 208.777 246.68 209.254C243.186 210.276 239.428 207.85 237.703 204.645C235.978 201.439 235.795 197.657 235.65 194.02C231.843 201.108 227.626 207.976 223.029 214.579C220.956 217.557 218.725 220.555 215.636 222.459C212.547 224.363 208.381 224.946 205.334 222.976C203.448 221.756 202.225 219.743 201.299 217.696C198.424 211.341 197.863 203.969 199.742 197.251C196.62 201.491 192.58 206.186 187.325 205.857C183.62 205.625 180.568 202.855 178.37 199.864C170.403 189.021 170.078 173.382 176.863 161.763C183.648 150.144 196.889 142.836 210.337 142.397C204.923 135.865 207.859 124.362 215.741 121.224C222.559 118.51 230.593 121.89 235.458 127.384C240.324 132.878 242.716 140.072 244.953 147.062C246.648 144.439 248.487 141.688 251.312 140.357C254.137 139.026 258.214 139.849 259.259 142.792" fill="#0C0726"/>
<path d="M338.924 309.074C353.243 313.615 364.423 324.017 374.296 334.871C384.169 345.726 393.35 357.446 405.52 365.807C417.69 374.168 433.761 378.817 448.653 373.785C451.794 372.724 455.03 371.067 456.685 368.205C457.915 366.077 458.09 363.581 457.942 361.231C456.903 344.718 442.345 333.469 428.626 324.683C406.104 310.259 382.288 296.981 355.691 290.731C350.556 289.524 343.602 289.378 341.063 294.214C339.05 298.048 341.015 303.437 337.605 306.207" fill="#945041"/>
<g opacity="0.28">
<path d="M359.939 313.961C363.31 309.904 363.935 304.108 362.833 298.949C361.731 293.79 359.113 289.102 356.53 284.503C350.518 273.8 344.506 263.096 338.495 252.393C336.369 248.607 329.555 242.288 325.817 243.851C324.578 244.369 323.908 245.681 323.528 246.813C322.763 245.999 321.563 244.803 319.951 243.521C316.843 241.051 315.119 239.681 313.176 239.961C310.112 240.403 308.54 244.657 308.33 245.246C306.456 243.296 303.445 242.949 301.202 244.408C299.011 245.833 298.09 248.632 299.016 251.106C298.539 251.035 296.522 250.791 294.758 252.105C293.104 253.337 292.732 255.15 292.616 255.715C291.872 259.338 294.614 262.646 295.425 264.101C301.23 274.517 307.036 284.932 312.841 295.348C313.792 297.055 314.773 299.029 314.14 300.878C313.319 303.277 310.342 304.031 307.819 304.28C304.478 304.611 301.114 304.699 297.761 304.544C294.342 304.386 289.537 305.194 289.666 308.614C289.763 311.167 292.777 312.397 295.257 313.01C303.758 315.113 312.258 317.216 320.759 319.32C327.919 321.092 335.22 322.876 342.579 322.376C351.416 321.775 357.73 316.091 361.489 312.505" fill="#0C0726"/>
</g>
<path d="M366.024 312.621C369.395 308.564 370.02 302.768 368.918 297.609C367.816 292.45 365.198 287.762 362.615 283.163C356.603 272.46 350.591 261.756 344.58 251.053C342.454 247.267 335.64 240.948 331.902 242.511C330.663 243.029 329.993 244.341 329.612 245.473C328.847 244.659 327.647 243.463 326.035 242.181C322.927 239.711 321.203 238.341 319.26 238.621C316.196 239.063 314.624 243.317 314.414 243.906C312.54 241.956 309.529 241.609 307.286 243.068C305.095 244.493 304.174 247.292 305.1 249.766C304.623 249.695 302.606 249.451 300.842 250.765C299.188 251.997 298.816 253.81 298.7 254.375C297.957 257.998 300.698 261.305 301.509 262.761C307.314 273.176 313.12 283.592 318.925 294.008C319.876 295.715 320.857 297.69 320.224 299.538C319.403 301.937 316.426 302.691 313.903 302.94C310.563 303.271 307.198 303.359 303.845 303.204C300.426 303.046 295.621 303.854 295.75 307.274C295.847 309.827 298.861 311.057 301.341 311.67C309.842 313.773 318.342 315.876 326.843 317.979C334.003 319.751 341.304 321.536 348.663 321.035C357.5 320.434 363.814 314.75 367.573 311.164" fill="#945041"/>
<g opacity="0.19">
<mask id="mask1_36_367" style="mask-type:luminance" maskUnits="userSpaceOnUse" x="295" y="238" width="75" height="84">
<path d="M366.024 312.621C369.395 308.564 370.02 302.768 368.918 297.609C367.816 292.45 365.198 287.762 362.615 283.163C356.603 272.46 350.591 261.756 344.58 251.053C342.454 247.267 335.64 240.948 331.902 242.511C330.663 243.029 329.993 244.341 329.612 245.473C328.847 244.659 327.647 243.463 326.035 242.181C322.927 239.711 321.203 238.341 319.26 238.621C316.196 239.063 314.624 243.317 314.414 243.906C312.54 241.956 309.529 241.609 307.286 243.068C305.095 244.493 304.174 247.292 305.1 249.766C304.623 249.695 302.606 249.451 300.842 250.765C299.188 251.997 298.816 253.81 298.7 254.375C297.957 257.998 300.698 261.305 301.509 262.761C307.314 273.176 313.12 283.592 318.925 294.008C319.876 295.715 320.857 297.69 320.224 299.538C319.403 301.937 316.426 302.691 313.903 302.94C310.563 303.271 307.198 303.359 303.845 303.204C300.426 303.046 295.621 303.854 295.75 307.274C295.847 309.827 298.861 311.057 301.341 311.67C309.842 313.773 318.342 315.876 326.843 317.979C334.003 319.751 341.304 321.536 348.663 321.035C357.5 320.434 363.814 314.75 367.573 311.164" fill="white"/>
</mask>
<g mask="url(#mask1_36_367)">
<path d="M326.674 242.375C331.917 250.306 336.833 258.432 341.425 266.756C341.781 267.401 342.705 266.723 342.353 266.085C337.761 257.761 332.844 249.635 327.601 241.704C327.195 241.087 326.268 241.761 326.674 242.375Z" fill="#0C0726"/>
</g>
<mask id="mask2_36_367" style="mask-type:luminance" maskUnits="userSpaceOnUse" x="295" y="238" width="75" height="84">
<path d="M366.024 312.621C369.395 308.564 370.02 302.768 368.918 297.609C367.816 292.45 365.198 287.762 362.615 283.163C356.603 272.46 350.591 261.756 344.58 251.053C342.454 247.267 335.64 240.948 331.902 242.511C330.663 243.029 329.993 244.341 329.612 245.473C328.847 244.659 327.647 243.463 326.035 242.181C322.927 239.711 321.203 238.341 319.26 238.621C316.196 239.063 314.624 243.317 314.414 243.906C312.54 241.956 309.529 241.609 307.286 243.068C305.095 244.493 304.174 247.292 305.1 249.766C304.623 249.695 302.606 249.451 300.842 250.765C299.188 251.997 298.816 253.81 298.7 254.375C297.957 257.998 300.698 261.305 301.509 262.761C307.314 273.176 313.12 283.592 318.925 294.008C319.876 295.715 320.857 297.69 320.224 299.538C319.403 301.937 316.426 302.691 313.903 302.94C310.563 303.271 307.198 303.359 303.845 303.204C300.426 303.046 295.621 303.854 295.75 307.274C295.847 309.827 298.861 311.057 301.341 311.67C309.842 313.773 318.342 315.876 326.843 317.979C334.003 319.751 341.304 321.536 348.663 321.035C357.5 320.434 363.814 314.75 367.573 311.164" fill="white"/>
</mask>
<g mask="url(#mask2_36_367)">
<path d="M311.821 239.302C318.427 250.572 325.295 261.681 332.424 272.628C332.827 273.247 333.754 272.573 333.352 271.957C326.223 261.01 319.356 249.901 312.749 238.631C312.376 237.994 311.45 238.671 311.821 239.302Z" fill="#0C0726"/>
</g>
<mask id="mask3_36_367" style="mask-type:luminance" maskUnits="userSpaceOnUse" x="295" y="238" width="75" height="84">
<path d="M366.024 312.621C369.395 308.564 370.02 302.768 368.918 297.609C367.816 292.45 365.198 287.762 362.615 283.163C356.603 272.46 350.591 261.756 344.58 251.053C342.454 247.267 335.64 240.948 331.902 242.511C330.663 243.029 329.993 244.341 329.612 245.473C328.847 244.659 327.647 243.463 326.035 242.181C322.927 239.711 321.203 238.341 319.26 238.621C316.196 239.063 314.624 243.317 314.414 243.906C312.54 241.956 309.529 241.609 307.286 243.068C305.095 244.493 304.174 247.292 305.1 249.766C304.623 249.695 302.606 249.451 300.842 250.765C299.188 251.997 298.816 253.81 298.7 254.375C297.957 257.998 300.698 261.305 301.509 262.761C307.314 273.176 313.12 283.592 318.925 294.008C319.876 295.715 320.857 297.69 320.224 299.538C319.403 301.937 316.426 302.691 313.903 302.94C310.563 303.271 307.198 303.359 303.845 303.204C300.426 303.046 295.621 303.854 295.75 307.274C295.847 309.827 298.861 311.057 301.341 311.67C309.842 313.773 318.342 315.876 326.843 317.979C334.003 319.751 341.304 321.536 348.663 321.035C357.5 320.434 363.814 314.75 367.573 311.164" fill="white"/>
</mask>
<g mask="url(#mask3_36_367)">
<path d="M299.513 242.978C308.179 254.156 316.07 265.875 323.168 278.109C323.538 278.747 324.463 278.07 324.096 277.437C316.998 265.203 309.107 253.484 300.441 242.306C299.99 241.724 299.061 242.394 299.513 242.978Z" fill="#0C0726"/>
</g>
<mask id="mask4_36_367" style="mask-type:luminance" maskUnits="userSpaceOnUse" x="295" y="238" width="75" height="84">
<path d="M366.024 312.621C369.395 308.564 370.02 302.768 368.918 297.609C367.816 292.45 365.198 287.762 362.615 283.163C356.603 272.46 350.591 261.756 344.58 251.053C342.454 247.267 335.64 240.948 331.902 242.511C330.663 243.029 329.993 244.341 329.612 245.473C328.847 244.659 327.647 243.463 326.035 242.181C322.927 239.711 321.203 238.341 319.26 238.621C316.196 239.063 314.624 243.317 314.414 243.906C312.54 241.956 309.529 241.609 307.286 243.068C305.095 244.493 304.174 247.292 305.1 249.766C304.623 249.695 302.606 249.451 300.842 250.765C299.188 251.997 298.816 253.81 298.7 254.375C297.957 257.998 300.698 261.305 301.509 262.761C307.314 273.176 313.12 283.592 318.925 294.008C319.876 295.715 320.857 297.69 320.224 299.538C319.403 301.937 316.426 302.691 313.903 302.94C310.563 303.271 307.198 303.359 303.845 303.204C300.426 303.046 295.621 303.854 295.75 307.274C295.847 309.827 298.861 311.057 301.341 311.67C309.842 313.773 318.342 315.876 326.843 317.979C334.003 319.751 341.304 321.536 348.663 321.035C357.5 320.434 363.814 314.75 367.573 311.164" fill="white"/>
</mask>
<g mask="url(#mask4_36_367)">
<path d="M327.905 295.463C338.233 290.994 349.746 291.806 359.359 297.642C359.989 298.024 360.458 296.978 359.835 296.6C349.978 290.617 338.068 289.819 327.491 294.396C326.817 294.687 327.226 295.757 327.905 295.463Z" fill="#0C0726"/>
</g>
</g>
<path d="M232.947 352.547C224.435 364.924 221.998 379.999 220.872 394.629C219.745 409.259 219.697 424.147 215.227 438.219C210.756 452.292 200.927 465.829 186.084 471.003C182.953 472.094 179.382 472.774 176.318 471.531C174.04 470.607 172.37 468.745 171.043 466.799C161.723 453.128 166.304 435.311 171.736 419.951C180.653 394.737 191.296 369.632 208.45 348.367C211.762 344.261 217.161 339.876 222.134 342.133C226.078 343.923 227.836 349.383 232.228 349.475" fill="#945041"/>
<path d="M222.742 313.473C224.029 314.578 225.559 316.61 230.036 339.192C230.036 339.192 234.418 359.317 232.051 371.132C231.898 371.897 231.714 372.677 231.293 373.246C230.61 374.169 229.746 374.391 229.233 374.473C222.331 375.573 218.842 376.128 216.321 373.277C212.644 369.118 215.399 362.662 212.593 348.596C209.218 331.678 201.777 323.699 203.9 317.69C204.752 315.279 206.942 314.626 211.322 313.319C216.107 311.891 219.664 310.831 222.742 313.473Z" fill="#F7EDFF"/>
<g opacity="0.06">
<path d="M207.703 332.606C214.718 332.37 221.783 332.689 228.84 333.529C225.186 315.871 223.795 314.084 222.617 313.067C219.53 310.428 215.975 311.489 211.187 312.907C206.812 314.229 204.627 314.871 203.779 317.282C202.443 321.043 204.87 325.587 207.703 332.606Z" fill="#F7EDFF"/>
</g>
<path d="M203.295 325.325C208.566 325.159 212.825 325.808 215.969 326.539C222.526 328.064 226.173 330.398 228.618 328.526C228.979 328.249 229.417 327.802 231.168 322.088C232.192 318.748 232.701 317.077 233.089 315.373C233.549 313.348 234.484 308.406 234.435 301.268C234.362 290.552 234.279 278.328 227.625 274.67C225.605 273.559 225.052 274.377 216.647 273.191C211.924 272.524 208.124 271.705 205.695 271.13C209.688 289.376 208.771 308.444 203.295 325.325Z" fill="#F54C40"/>
<path d="M73.4385 358.471C95.0555 344.517 119.001 334.782 143.996 329.488C159.733 326.146 175.916 324.585 192.179 324.854C195.877 324.905 199.59 325.067 203.294 325.325C208.77 308.444 209.687 289.376 205.694 271.13C190.004 268.841 162.23 262.616 133.825 243.202C113.728 229.466 100.396 213.968 92.2285 202.725C92.4345 224.387 91.5065 248.59 88.6225 274.823C85.1755 306.19 79.6145 334.243 73.4385 358.471Z" fill="#F7EDFF"/>
<path d="M64.6746 360.751C69.1906 361.171 73.7986 359.021 78.2546 354.802C90.5526 343.113 101.577 315.561 105.704 282.783C109.53 252.561 106.52 225.625 98.8836 210.923C95.2706 203.908 90.5776 199.653 85.0956 199.147C68.0636 197.579 49.6866 232.478 44.0626 277.096C38.4196 321.719 47.6436 359.184 64.6746 360.751Z" fill="#F54C40"/>
<path opacity="0.39" d="M67.9146 349.323C78.2926 347.112 92.3006 319.464 96.6096 281.829C101.568 238.521 91.5836 210.584 82.2426 209.62C81.6956 209.563 81.1466 209.596 80.5646 209.72C70.1866 211.931 56.1786 239.579 51.8696 277.214C46.9126 320.522 56.8956 348.46 66.2366 349.423C66.7836 349.48 67.3326 349.447 67.9146 349.323Z" fill="#0C0726"/>
<path opacity="0.41" d="M75.9933 279.608C73.6283 294.253 75.7103 307.144 80.6433 308.402C85.5763 309.66 91.4923 298.807 93.8573 284.162C96.2223 269.517 94.1403 256.625 89.2073 255.368C84.2743 254.11 78.3583 264.963 75.9933 279.608Z" fill="#0C0726"/>
<g opacity="0.06">
<path d="M73.4385 358.471C95.0555 344.517 119.001 334.782 143.996 329.488C159.733 326.146 175.916 324.585 192.179 324.854C195.877 324.905 199.59 325.067 203.294 325.325C211.74 325.881 220.206 326.94 228.617 328.527C232.351 320.152 234.836 310.946 234.429 301.317C225.545 302.801 216.601 303.842 207.611 304.549C168.352 307.57 128.116 303.786 88.2635 299.88C86.6305 326.315 81.1265 347.724 73.4385 358.471Z" fill="#0C0726"/>
</g>
<path d="M233.381 362.021C236.608 359.896 237.236 355.582 237.423 354.297C237.538 353.506 238.295 350.887 236.004 343.936C235.174 341.418 234.198 338.937 233.672 336.339C232.68 331.433 233.328 326.276 232.064 321.433C231.858 320.645 231.579 319.831 230.976 319.284C229.419 317.872 226.736 319.202 225.927 321.141C225.118 323.081 225.496 325.278 225.539 327.379C225.688 334.588 221.751 341.474 222.229 348.668C222.419 351.522 223.3 354.279 224.174 357.002C224.764 358.839 225.001 360.189 226.194 361.34C226.595 361.727 228.176 363.143 230.424 363.051C231.881 362.991 232.918 362.327 233.381 362.021Z" fill="#945041"/>
<path d="M191.581 328.365C195.521 322.349 208.784 322.778 216.402 328.287C217.685 329.215 221.198 331.665 220.408 333.819C219.816 335.432 217.931 336.086 216.274 336.539C218.287 336.867 219.988 338.601 220.277 340.62C220.566 342.638 219.42 344.781 217.58 345.66C219.848 345.777 221.909 347.622 222.276 349.863C222.643 352.104 221.277 354.51 219.164 355.344C220.599 356.537 222.19 358.228 221.588 359.994C221.266 360.939 220.385 361.567 219.529 362.081C215.117 364.732 209.935 366.083 204.791 365.924C203.217 365.875 201.59 365.669 200.249 364.845C197.653 363.248 196.871 360.273 196.445 358.736C192.238 343.536 187.928 338.513 190.681 330.388C191.122 329.086 191.457 328.554 191.581 328.365Z" fill="#945041"/>
<g opacity="0.17">
<mask id="mask5_36_367" style="mask-type:luminance" maskUnits="userSpaceOnUse" x="190" y="324" width="33" height="42">
<path d="M192.162 328.373C196.102 322.358 209.365 322.786 216.983 328.295C218.267 329.223 221.78 331.673 220.989 333.827C220.397 335.44 218.512 336.094 216.855 336.547C218.868 336.875 220.569 338.609 220.858 340.628C221.147 342.646 220.001 344.789 218.161 345.668C220.429 345.785 222.49 347.63 222.857 349.871C223.224 352.112 221.858 354.518 219.745 355.352C221.18 356.545 222.771 358.236 222.169 360.002C221.847 360.947 220.966 361.575 220.11 362.089C215.698 364.74 210.516 366.091 205.371 365.932C203.797 365.883 202.17 365.678 200.829 364.853C198.233 363.256 197.451 360.281 197.025 358.744C192.818 343.544 188.508 338.521 191.261 330.396C191.704 329.094 192.038 328.562 192.162 328.373Z" fill="white"/>
</mask>
<g mask="url(#mask5_36_367)">
<path d="M221.873 334.61C215.69 336.117 209.492 336.471 203.176 335.645C202.298 335.53 202.076 336.891 202.958 337.007C209.393 337.849 215.713 337.52 222.025 335.982C222.874 335.774 222.736 334.4 221.873 334.61Z" fill="#0C0726"/>
</g>
<mask id="mask6_36_367" style="mask-type:luminance" maskUnits="userSpaceOnUse" x="190" y="324" width="33" height="42">
<path d="M192.162 328.373C196.102 322.358 209.365 322.786 216.983 328.295C218.267 329.223 221.78 331.673 220.989 333.827C220.397 335.44 218.512 336.094 216.855 336.547C218.868 336.875 220.569 338.609 220.858 340.628C221.147 342.646 220.001 344.789 218.161 345.668C220.429 345.785 222.49 347.63 222.857 349.871C223.224 352.112 221.858 354.518 219.745 355.352C221.18 356.545 222.771 358.236 222.169 360.002C221.847 360.947 220.966 361.575 220.11 362.089C215.698 364.74 210.516 366.091 205.371 365.932C203.797 365.883 202.17 365.678 200.829 364.853C198.233 363.256 197.451 360.281 197.025 358.744C192.818 343.544 188.508 338.521 191.261 330.396C191.704 329.094 192.038 328.562 192.162 328.373Z" fill="white"/>
</mask>
<g mask="url(#mask6_36_367)">
<path d="M221.474 343.613C214.04 346.358 206.417 347.4 198.525 346.729C197.646 346.654 197.42 348.015 198.306 348.091C206.421 348.78 214.335 347.719 221.972 344.899C222.805 344.591 222.308 343.305 221.474 343.613Z" fill="#0C0726"/>
</g>
<mask id="mask7_36_367" style="mask-type:luminance" maskUnits="userSpaceOnUse" x="190" y="324" width="33" height="42">
<path d="M192.162 328.373C196.102 322.358 209.365 322.786 216.983 328.295C218.267 329.223 221.78 331.673 220.989 333.827C220.397 335.44 218.512 336.094 216.855 336.547C218.868 336.875 220.569 338.609 220.858 340.628C221.147 342.646 220.001 344.789 218.161 345.668C220.429 345.785 222.49 347.63 222.857 349.871C223.224 352.112 221.858 354.518 219.745 355.352C221.18 356.545 222.771 358.236 222.169 360.002C221.847 360.947 220.966 361.575 220.11 362.089C215.698 364.74 210.516 366.091 205.371 365.932C203.797 365.883 202.17 365.678 200.829 364.853C198.233 363.256 197.451 360.281 197.025 358.744C192.818 343.544 188.508 338.521 191.261 330.396C191.704 329.094 192.038 328.562 192.162 328.373Z" fill="white"/>
</mask>
<g mask="url(#mask7_36_367)">
<path d="M222.552 353.745C215.983 357.204 208.914 358.649 201.51 357.971C200.631 357.891 200.406 359.252 201.292 359.333C208.926 360.032 216.262 358.606 223.051 355.031C223.826 354.623 223.338 353.331 222.552 353.745Z" fill="#0C0726"/>
</g>
</g>
<g opacity="0.12">
<path d="M259.811 403.914C264.338 423.909 282.045 435.679 301.346 439.126C304.25 439.645 304.976 435.12 302.072 434.602C285.009 431.554 268.42 421.312 264.366 403.411C263.724 400.571 259.159 401.033 259.811 403.914Z" fill="#0C0726"/>
</g>
<g opacity="0.31">
<path d="M192.726 351.146C193.958 360.983 197.669 375.396 210.601 373.819C212.062 373.641 211.818 371.362 210.35 371.541C198.846 372.944 196.071 359.41 195.004 350.894C194.821 349.435 192.542 349.677 192.726 351.146Z" fill="#0C0726"/>
</g>
<g opacity="0.31">
<path d="M194.806 366.86C185.745 387.56 171.518 406.396 168.371 429.278C168.17 430.737 170.432 431.105 170.633 429.641C173.749 406.984 187.918 388.31 196.891 367.811C197.483 366.46 195.398 365.508 194.806 366.86Z" fill="#0C0726"/>
</g>
<g opacity="0.31">
<path d="M357.353 321.699C377.376 345.533 404.671 362.259 435 369.273C436.437 369.605 436.794 367.342 435.363 367.011C405.665 360.142 378.817 343.695 359.209 320.356C358.266 319.232 356.403 320.568 357.353 321.699Z" fill="#0C0726"/>
</g>
<g opacity="0.31">
<path d="M333.842 387.009C333.512 380.788 333.182 374.567 332.852 368.346C332.774 366.874 330.496 367.126 330.574 368.597C330.904 374.818 331.234 381.039 331.564 387.26C331.642 388.732 333.92 388.48 333.842 387.009Z" fill="#0C0726"/>
</g>
<g opacity="0.31">
<path d="M334.87 387.849C337.116 382.632 339.362 377.414 341.608 372.197C342.191 370.842 340.107 369.89 339.523 371.246C337.277 376.463 335.031 381.681 332.785 386.898C332.202 388.253 334.287 389.205 334.87 387.849Z" fill="#0C0726"/>
</g>
<path d="M231.09 239.832C236.894 239.223 241.009 233.109 240.281 226.176C239.553 219.243 234.258 214.117 228.454 214.727C222.65 215.336 218.535 221.45 219.263 228.382C219.991 235.315 225.286 240.441 231.09 239.832Z" fill="white"/>
<path d="M287.913 245.334C297.034 244.377 303.746 237.103 302.904 229.088C302.063 221.073 293.987 215.351 284.866 216.309C275.745 217.266 269.034 224.54 269.875 232.555C270.716 240.57 278.792 246.292 287.913 245.334Z" fill="white"/>
<path d="M269.372 229.102C271.602 225.595 274.472 223.224 277.588 221.731C280.713 220.248 283.992 219.857 287.289 220.329C288.927 220.572 290.552 221.025 292.098 221.694C292.882 222.009 293.626 222.413 294.365 222.835C294.737 223.045 295.091 223.28 295.444 223.523C295.806 223.748 296.166 224.024 296.551 224.317C298.087 225.447 299.936 227.088 302.59 227.49C303.901 227.642 305.155 227.376 306.197 226.741C306.712 226.421 307.173 226.011 307.495 225.518C307.803 225.013 307.971 224.449 307.925 223.922C307.336 224.813 306.449 225.127 305.628 225.167C304.799 225.195 303.974 225 303.369 224.627C302.145 223.879 301.141 222.482 299.843 220.896C299.189 220.11 298.368 219.234 297.49 218.523C296.623 217.775 295.666 217.139 294.668 216.574C293.674 215.996 292.606 215.563 291.525 215.167C290.432 214.804 289.304 214.541 288.161 214.354C285.867 214.047 283.493 214.104 281.221 214.698C278.936 215.261 276.819 216.346 275.031 217.747C273.262 219.179 271.776 220.917 270.786 222.89C269.784 224.844 269.254 227.017 269.372 229.102Z" fill="#0C0726"/>
<path d="M240.248 227.078C241.602 224.617 241.237 221.351 239.587 218.806C238.778 217.508 237.608 216.387 236.217 215.528C234.811 214.69 233.218 214.171 231.604 213.989C228.38 213.616 225.012 214.624 222.652 216.762C222.066 217.297 221.728 217.746 221.476 218.053C221.215 218.359 221.153 218.554 220.783 218.74C220.09 219.081 218.864 219.117 217.777 218.228C217.575 219.654 218.794 221.238 220.606 221.705C221.064 221.825 221.567 221.858 222.088 221.82C222.629 221.772 223.092 221.63 223.518 221.481C224.36 221.17 224.982 220.81 225.436 220.651C227.233 219.988 229.092 219.803 230.864 219.991C232.644 220.192 234.241 220.729 235.863 221.887C237.488 223.037 238.979 224.644 240.248 227.078Z" fill="#0C0726"/>
<path d="M272.659 231.731C273.425 239.032 278.416 244.493 283.805 243.927C289.195 243.361 292.943 236.984 292.176 229.683C291.41 222.382 286.419 216.921 281.03 217.487C275.641 218.052 271.893 224.43 272.659 231.731Z" fill="#0C0726"/>
<path d="M226.119 227.109C225.871 234.052 229.185 239.807 233.521 239.962C237.857 240.117 241.574 234.614 241.822 227.671C242.071 220.728 238.757 214.973 234.42 214.818C230.084 214.662 226.368 220.165 226.119 227.109Z" fill="#0C0726"/>
<g opacity="0.15">
<path d="M267.184 219.586C268.528 217.151 270.475 215.259 272.94 213.972C273.658 213.598 274.11 214.773 273.399 215.144C271.247 216.267 269.502 217.981 268.33 220.104C267.943 220.808 266.792 220.297 267.184 219.586Z" fill="#0C0726"/>
</g>
<g opacity="0.13">
<path d="M243.195 217.972C242.078 215.642 240.181 213.882 237.799 212.897C237.051 212.587 237.568 211.441 238.317 211.75C241.01 212.864 243.11 214.89 244.367 217.513C244.717 218.244 243.543 218.698 243.195 217.972Z" fill="#0C0726"/>
</g>
<path d="M246.576 207.692C243.012 199.171 232.769 196.175 225.746 202.67C224.542 203.784 226.04 205.884 227.257 204.758C233.019 199.43 241.184 201.479 244.172 208.624C244.811 210.151 247.218 209.228 246.576 207.692Z" fill="#0C0726"/>
<path d="M271.217 206.371C280.474 199.571 292.788 200.67 300.539 209.235C301.615 210.424 303.664 208.961 302.577 207.76C293.91 198.182 280.202 196.649 269.742 204.333C268.436 205.292 269.909 207.332 271.217 206.371Z" fill="#0C0726"/>
<path d="M285.408 227.062C285.582 228.72 287.796 229.847 290.352 229.579C292.909 229.311 294.84 227.749 294.666 226.09C294.492 224.432 292.278 223.305 289.722 223.573C287.165 223.842 285.234 225.404 285.408 227.062Z" fill="white"/>
<path d="M222.656 224.54C222.83 226.198 225.044 227.325 227.6 227.057C230.157 226.789 232.088 225.227 231.914 223.568C231.74 221.91 229.526 220.783 226.97 221.051C224.413 221.32 222.482 222.882 222.656 224.54Z" fill="white"/>
<path d="M286.648 232.05C286.834 232.786 286.765 233.494 286.494 233.631C286.223 233.769 285.852 233.284 285.665 232.548C285.479 231.812 285.548 231.104 285.819 230.967C286.09 230.83 286.462 231.314 286.648 232.05Z" fill="white"/>
<path d="M231.42 229.693C231.529 230.729 232.457 231.481 233.494 231.373C234.53 231.264 235.282 230.336 235.174 229.299C235.065 228.263 234.137 227.511 233.1 227.619C232.063 227.728 231.311 228.656 231.42 229.693Z" fill="white"/>
<path d="M254.668 166.742C249.678 174.985 271.73 200.339 295.936 214.203C307.043 220.564 317.374 223.802 324.735 225.561C326.232 222.076 327.753 218.498 327.934 214.709C328.183 209.517 326.296 204.675 321.184 197.403C315.391 189.161 308.742 179.699 295.687 172.725C281.661 165.232 258.835 159.859 254.668 166.742Z" fill="#0C0726"/>
<g opacity="0.27">
<path d="M301.523 136.766C305.399 138.224 309.149 140.037 312.717 142.164C316.272 144.314 319.636 146.782 322.772 149.517C329.037 154.996 334.311 161.613 338.291 168.937C342.207 176.295 344.815 184.345 345.932 192.593C346.484 196.717 346.686 200.885 346.52 205.036C346.325 209.186 345.769 213.313 344.847 217.35C345.623 213.282 346.027 209.151 346.072 205.023C346.145 200.896 345.866 196.766 345.235 192.694C343.986 184.552 341.414 176.604 337.485 169.371C333.621 162.103 328.407 155.576 322.305 150.042C319.256 147.269 315.965 144.76 312.482 142.543C309.014 140.303 305.345 138.362 301.523 136.766Z" fill="white"/>
<path d="M242.274 151.11C240.306 148.678 237.993 146.402 235.117 145.157C233.695 144.522 232.141 144.233 230.602 144.305C229.068 144.367 227.536 144.796 226.277 145.646C225.011 146.483 224.072 147.767 223.71 149.232C223.332 150.686 223.451 152.271 224.053 153.636C224.358 154.335 224.768 154.903 225.315 155.495C225.575 155.803 225.873 156.191 225.958 156.682C226.066 157.154 225.957 157.694 225.699 158.088C224.588 159.612 222.798 159.887 221.436 160.462C218.584 161.611 216.069 163.55 214.151 165.954C212.25 168.372 210.944 171.262 210.483 174.291C210.393 175.046 210.259 175.829 210.344 176.519C210.413 177.214 210.737 177.778 211.317 178.134C212.49 178.863 214.127 178.768 215.572 178.459C218.534 177.749 221.066 175.787 223.497 173.843L224.259 173.233L224.156 174.201C223.983 175.83 223.836 177.454 223.981 179.046C224.122 180.632 224.581 182.186 225.529 183.446C226.448 184.705 227.861 185.613 229.423 185.65C230.98 185.722 232.495 184.995 233.761 184.027C235.042 183.049 236.137 181.831 237.12 180.527C238.129 179.237 239.071 177.893 239.955 176.512C241.721 173.747 243.227 170.811 244.451 167.757C243.323 170.848 241.905 173.838 240.217 176.674C239.371 178.09 238.467 179.474 237.488 180.805C236.516 182.141 235.414 183.416 234.095 184.461C232.792 185.492 231.174 186.329 229.402 186.284C227.631 186.277 225.981 185.252 224.954 183.882C223.885 182.517 223.347 180.8 223.199 179.121C223.036 177.431 223.185 175.757 223.348 174.119L224.007 174.477C221.571 176.438 218.99 178.504 215.768 179.305C214.967 179.492 214.146 179.579 213.313 179.569C212.475 179.537 211.609 179.371 210.837 178.892C210.046 178.442 209.507 177.5 209.44 176.626C209.335 175.743 209.482 174.957 209.582 174.155C210.588 167.749 215.13 162.092 221.141 159.718L222.274 159.31C222.638 159.193 222.996 159.062 223.339 158.909C224.014 158.605 224.693 158.214 225.042 157.676C225.391 157.144 225.255 156.524 224.751 155.966C224.237 155.397 223.719 154.668 223.415 153.911C222.773 152.383 222.677 150.655 223.117 149.072C223.54 147.477 224.608 146.077 225.984 145.204C228.763 143.427 232.385 143.513 235.236 144.89C238.14 146.258 240.381 148.62 242.274 151.11Z" fill="white"/>
<path d="M408.885 284.486C411.51 286.977 414.119 289.492 416.945 291.731C419.749 293.985 422.79 295.974 426.121 297.268C427.777 297.91 429.493 298.517 431.195 298.36C432.028 298.285 432.83 298.002 433.386 297.433C433.959 296.888 434.267 296.08 434.469 295.243C435.271 291.839 434.605 288.114 432.702 285.185L431.685 283.618L433.29 284.563C435.72 285.994 438.258 287.452 441.011 287.482C442.363 287.488 443.732 287.107 444.83 286.349C445.947 285.609 446.667 284.376 446.773 283.03C446.888 281.683 446.493 280.301 445.901 279.043C445.3 277.78 444.488 276.605 443.617 275.494C441.848 273.281 439.602 271.447 437.077 270.106C439.685 271.285 442.023 273.068 443.924 275.237C444.87 276.328 445.714 277.507 446.381 278.809C447.029 280.106 447.503 281.559 447.416 283.079C447.345 284.596 446.527 286.091 445.269 286.965C444.029 287.862 442.511 288.273 441.013 288.287C437.952 288.27 435.298 286.726 432.847 285.322L433.434 284.701C435.524 287.819 436.201 291.809 435.305 295.448C435.078 296.349 434.724 297.319 433.971 298.034C433.242 298.765 432.221 299.099 431.266 299.173C429.316 299.324 427.514 298.653 425.834 297.973C422.441 296.552 419.407 294.447 416.639 292.102C413.88 289.735 411.355 287.131 408.885 284.486Z" fill="white"/>
<path d="M315.784 128.091C318.423 124.775 321.667 121.937 325.261 119.654C328.87 117.386 332.864 115.744 337.002 114.685C341.149 113.644 345.473 113.324 349.74 113.68C350.811 113.734 351.867 113.926 352.927 114.083C353.975 114.233 355.114 114.471 356.098 115.194C356.582 115.558 356.994 116.14 357.087 116.792C357.206 117.442 356.997 118.123 356.65 118.62C355.938 119.619 354.944 120.181 353.969 120.667L354.02 119.913C355.69 121.026 357.874 121.081 359.999 121.425C362.152 121.663 364.451 122.868 365.432 125.016C365.672 125.551 365.781 126.176 365.687 126.783C365.589 127.387 365.315 127.956 364.909 128.394C364.077 129.278 362.959 129.629 361.934 129.927L355.75 131.612L355.748 131.142C356.769 131.434 357.798 131.752 358.774 132.219C359.745 132.681 360.672 133.316 361.326 134.195C361.989 135.085 362.208 136.235 362.036 137.297C361.88 138.35 361.179 139.405 360.108 139.646C361.166 139.348 361.774 138.291 361.883 137.275C362.011 136.247 361.753 135.158 361.111 134.363C360.461 133.555 359.564 132.986 358.612 132.575C357.655 132.162 356.639 131.887 355.618 131.614L354.784 131.391L355.616 131.144L361.755 129.321C362.751 129.015 363.753 128.639 364.384 127.924C365.01 127.208 365.15 126.197 364.721 125.327C364.323 124.452 363.582 123.708 362.733 123.182C361.887 122.625 360.915 122.4 359.868 122.239C357.828 121.907 355.519 121.915 353.537 120.639L352.897 120.227L353.588 119.884C354.492 119.436 355.39 118.875 355.905 118.123C356.434 117.389 356.261 116.442 355.534 115.916C354.804 115.366 353.8 115.105 352.77 114.961C351.737 114.8 350.708 114.604 349.661 114.544C345.495 114.164 341.257 114.445 337.18 115.435C333.098 116.383 329.127 117.909 325.512 120.069C321.89 122.211 318.592 124.917 315.784 128.091Z" fill="white"/>
<path d="M412.148 202.585C413.45 205.069 415.732 206.852 418.228 207.983C420.737 209.132 423.451 209.755 426.165 210.258C428.891 210.717 431.648 211.14 434.391 211.417C437.135 211.689 439.9 211.772 442.606 211.375C448.044 210.581 453.011 207.847 458.505 206.562C459.192 206.405 459.884 206.266 460.583 206.157C461.289 206.046 462.081 205.961 462.888 206.326C463.289 206.516 463.646 206.906 463.765 207.361C463.902 207.826 463.792 208.296 463.629 208.661C463.292 209.403 462.73 209.919 462.251 210.407C460.264 212.388 458.08 214.173 455.73 215.705L455.593 215.019C456.759 215.274 457.724 216.102 458.231 217.112C458.762 218.112 458.941 219.307 458.622 220.416C458.32 221.556 457.386 222.387 456.43 222.881C455.455 223.393 454.416 223.667 453.404 223.956C449.32 225.065 445.121 225.74 440.907 225.903C445.105 225.521 449.258 224.733 453.271 223.497C454.275 223.188 455.284 222.892 456.169 222.4C457.048 221.915 457.805 221.191 458.029 220.248C458.54 218.392 457.308 216.102 455.45 215.759L454.545 215.592L455.313 215.074C457.595 213.535 459.733 211.782 461.664 209.822C462.153 209.326 462.623 208.859 462.858 208.32C463.104 207.795 462.964 207.31 462.51 207.095C462.037 206.876 461.364 206.897 460.72 207.018C460.047 207.128 459.378 207.267 458.711 207.424C453.392 208.728 448.354 211.37 442.723 212.189C437.074 212.965 431.508 211.789 426.06 210.809C423.333 210.247 420.59 209.556 418.083 208.281C415.587 207.047 413.315 205.139 412.148 202.585Z" fill="white"/>
<path d="M287.54 183.941C289.773 186.142 291.978 188.366 294.173 190.597C296.368 192.822 298.498 195.141 300.839 197.169C303.15 199.192 305.828 200.937 308.836 201.324C309.553 201.425 310.25 201.315 310.417 200.842C310.617 200.353 310.515 199.472 310.486 198.736C310.375 197.212 310.073 195.7 309.59 194.248L308.873 192.095L310.32 193.837C311.662 195.453 313.061 197.022 314.518 198.536C315.25 199.29 315.98 200.046 316.728 200.784C317.486 201.51 318.212 202.293 319.04 202.848C319.861 203.419 320.87 203.628 321.813 203.306C322.749 202.996 323.56 202.3 324.125 201.46C325.248 199.71 325.227 197.471 325.217 195.392C325.382 197.464 325.53 199.706 324.438 201.655C323.883 202.59 323.044 203.398 321.976 203.785C321.446 203.975 320.861 204.048 320.29 203.965C319.719 203.884 319.186 203.651 318.713 203.361C317.765 202.763 317.025 202.001 316.237 201.296C315.46 200.576 314.693 199.843 313.953 199.084C312.466 197.572 311.038 196.002 309.665 194.385L310.395 193.974C310.917 195.488 311.249 197.068 311.383 198.665C311.416 199.064 311.438 199.465 311.446 199.866C311.45 200.268 311.451 200.729 311.241 201.212C311.037 201.71 310.52 202.067 310.052 202.166C309.579 202.28 309.136 202.252 308.717 202.198C305.443 201.737 302.658 199.844 300.318 197.756C297.964 195.629 295.943 193.239 293.807 190.943C291.705 188.621 289.607 186.293 287.54 183.941Z" fill="white"/>
</g>
</g>
</g>
<defs>
<clipPath id="clip0_36_367">
<rect width="500" height="500" fill="white"/>
</clipPath>
</defs>
</svg>
