<?xml version="1.0" encoding="utf-8"?>
<!-- Generator: Adobe Illustrator 27.5.0, SVG Export Plug-In . SVG Version: 6.00 Build 0)  -->
<svg version="1.1" xmlns="http://www.w3.org/2000/svg" xmlns:xlink="http://www.w3.org/1999/xlink" x="0px" y="0px"
	 viewBox="0 0 3710 3710" style="enable-background:new 0 0 3710 3710;" xml:space="preserve">
<g id="Background">
	<g>
		<polyline style="fill:#FFFFFF;" points="3710,0 3710,3710 0,3710 0,0 		"/>
	</g>
</g>
<g id="Illustration">
	<g>
		<path style="fill:#F4F7FA;" d="M2970.814,914.801c-62.043-85.307-232.403-313.258-539.746-427.591
			c-508.341-189.105-991.469,81.398-1296.793,252.349c-282.885,158.387-699.196,391.48-700.969,707.979
			c-1.634,291.813,350.847,347.319,406.562,714.988c59.529,392.838-305.014,579.238-210.291,834.153
			c110.355,296.984,722.245,359.119,1107.531,315.436c147.991-16.779,958.628-108.688,1331.841-841.163
			C3324.872,1968.674,3283.574,1344.837,2970.814,914.801z"/>
		<g>
			<path style="fill:#26264F;" d="M2040.201,1865.696c0,0-21.436,3.189-23.625,13.604c-2.188,10.415-4.428,21.408,4.182,49.815
				c8.612,28.406,7.643,40.524,18.014,42.364C2049.141,1973.32,2069.361,1897.685,2040.201,1865.696z"/>
			
				<linearGradient id="SVGID_1_" gradientUnits="userSpaceOnUse" x1="902.8731" y1="1457.2489" x2="909.8844" y2="1548.3959" gradientTransform="matrix(-0.8615 0.5076 0.5076 0.8615 2064.9126 97.0066)">
				<stop  offset="0" style="stop-color:#311944"/>
				<stop  offset="1" style="stop-color:#A03976"/>
			</linearGradient>
			<path style="fill:url(#SVGID_1_);" d="M2038.618,1835.661c-0.184,2.066-7.851,25.382-12.258,38.65
				c-1.796,5.411,0.207,11.333,4.902,14.57l0,0c6.871,4.737,16.222,3.268,21.316-3.342c8.571-11.125,20.958-27.809,27.312-39.228
				L2038.618,1835.661z"/>
			
				<linearGradient id="SVGID_00000183941483869858267120000010886350499219299753_" gradientUnits="userSpaceOnUse" x1="574.845" y1="896.4655" x2="884.4839" y2="1141.4548" gradientTransform="matrix(-0.8615 0.5076 0.5076 0.8615 2064.9126 97.0066)">
				<stop  offset="0" style="stop-color:#444B8C"/>
				<stop  offset="0.9964" style="stop-color:#3E4177"/>
			</linearGradient>
			<path style="fill:url(#SVGID_00000183941483869858267120000010886350499219299753_);" d="M1555.534,1537.488
				c-18.273-36.351,82.729-120.496,96.164-131.69c26.45-22.036,281.529-229.951,430.016-128.42
				c124.996,85.47,82.233,327.162,73.857,374.506c-17.574,99.314-57.823,174.478-87.774,220.752
				c-16.293-9.066-32.586-18.131-48.88-27.197c-10.538-52.737-16.948-97.153-20.965-129.749
				c-5.94-48.209-11.297-91.671-12.6-149.096c-2.066-90.945,8.481-108.947-6.077-120.176
				c-32.183-24.82-99.008,51.355-238.766,89.065C1681.931,1551.29,1572.217,1570.678,1555.534,1537.488z"/>
			
				<linearGradient id="SVGID_00000064320652461289614950000005758443261113653666_" gradientUnits="userSpaceOnUse" x1="577.2081" y1="893.4772" x2="886.8474" y2="1138.4669" gradientTransform="matrix(-0.8615 0.5076 0.5076 0.8615 2064.9126 97.0066)">
				<stop  offset="0" style="stop-color:#444B8C"/>
				<stop  offset="0.9964" style="stop-color:#3E4177"/>
			</linearGradient>
			<path style="opacity:0.3;fill:url(#SVGID_00000064320652461289614950000005758443261113653666_);" d="M1651.699,1405.797
				c7.924-6.601,36.464-29.915,76.419-56.568c12.238,16.989,24.897,24.971,35.597,28.632
				c49.176,16.828,83.862-41.919,170.296-43.625c22.106-0.437,82.726-1.633,113.305,35.914
				c36.533,44.864-10.22,95.433,20.611,195.837c15.994,52.091,32.528,51.343,34.68,90.138
				c3.398,61.251-36.597,84.944-34.171,138.604c0.642,14.181,4.562,31.616,15.468,51.429c-5.541,9.552-10.997,18.585-16.104,26.477
				c-16.293-9.066-32.586-18.131-48.88-27.197c-10.538-52.737-16.948-97.153-20.965-129.749
				c-5.94-48.209-11.297-91.671-12.6-149.096c-2.066-90.945,8.481-108.947-6.077-120.176
				c-32.183-24.82-99.008,51.355-238.766,89.065c-58.579,15.808-168.293,35.196-184.976,2.006
				C1537.261,1501.137,1638.263,1416.991,1651.699,1405.797z"/>
		</g>
		<g>
			<g>
				<g>
					
						<linearGradient id="SVGID_00000125590618035006759120000016723174723025859990_" gradientUnits="userSpaceOnUse" x1="-2550.748" y1="1494.4028" x2="-1936.7246" y2="1494.4028" gradientTransform="matrix(-0.6881 -0.7256 -0.7256 0.6881 1695.6718 13.3486)">
						<stop  offset="0" style="stop-color:#444B8C"/>
						<stop  offset="0.9964" style="stop-color:#26264F"/>
					</linearGradient>
					<path style="fill:url(#SVGID_00000125590618035006759120000016723174723025859990_);" d="M2250.062,2276.423
						c0,0,225.558,340.538-72.962,793.24c-27.808,42.17-91.029,37.908-113.165-7.496l-141.013-289.234
						c-22.607-46.37-24.588-100.13-5.453-148.039l98.239-245.968L2250.062,2276.423z"/>
					
						<linearGradient id="SVGID_00000148634911625687377560000010197428332422531982_" gradientUnits="userSpaceOnUse" x1="-1336.6803" y1="1494.3707" x2="-722.6376" y2="1494.3707" gradientTransform="matrix(-0.6881 -0.7256 -0.7256 0.6881 1695.6718 13.3486)">
						<stop  offset="0" style="stop-color:#444B8C"/>
						<stop  offset="0.9964" style="stop-color:#26264F"/>
					</linearGradient>
					<path style="fill:url(#SVGID_00000148634911625687377560000010197428332422531982_);" d="M1717.624,1714.939
						c0,0-328.089-243.312-795.994,30.764c-43.586,25.53-42.685,88.89,1.48,113.404l281.343,156.163
						c45.106,25.036,98.685,29.867,147.541,13.302l250.835-85.048L1717.624,1714.939z"/>
				</g>
				<g>
					
						<linearGradient id="SVGID_00000001633606111007081220000007867264878179725968_" gradientUnits="userSpaceOnUse" x1="-2550.7493" y1="1451.2053" x2="-1936.7257" y2="1451.2053" gradientTransform="matrix(-0.6881 -0.7256 -0.7256 0.6881 1695.6718 13.3486)">
						<stop  offset="0" style="stop-color:#AA80F9"/>
						<stop  offset="0.9964" style="stop-color:#6165D7"/>
					</linearGradient>
					<path style="fill:url(#SVGID_00000001633606111007081220000007867264878179725968_);" d="M2281.407,2246.7
						c0,0,225.559,340.538-72.962,793.24c-27.808,42.17-91.029,37.908-113.165-7.496l-141.013-289.234
						c-22.607-46.371-24.587-100.131-5.453-148.039l98.239-245.968L2281.407,2246.7z"/>
					
						<linearGradient id="SVGID_00000075879798386698121740000004327349591852890506_" gradientUnits="userSpaceOnUse" x1="1830.8931" y1="2431.238" x2="2907.3359" y2="1882.0316" gradientTransform="matrix(0.9685 0.249 -0.249 0.9685 -29.712 -970.7964)">
						<stop  offset="0" style="stop-color:#AA80F9"/>
						<stop  offset="0.9964" style="stop-color:#6165D7"/>
					</linearGradient>
					<path style="fill:url(#SVGID_00000075879798386698121740000004327349591852890506_);" d="M1748.969,1685.216
						c0,0-328.088-243.312-795.994,30.764c-43.586,25.53-42.685,88.889,1.48,113.404l281.343,156.163
						c45.105,25.036,98.685,29.867,147.541,13.302l250.835-85.048L1748.969,1685.216z"/>
				</g>
				
					<linearGradient id="SVGID_00000034791002825651708280000004186191523432996740_" gradientUnits="userSpaceOnUse" x1="-1994.8673" y1="1044.8837" x2="-682.8287" y2="-335.9971" gradientTransform="matrix(-0.6881 -0.7256 -0.7256 0.6881 1695.6718 13.3486)">
					<stop  offset="0" style="stop-color:#FFC444"/>
					<stop  offset="0.9964" style="stop-color:#F36F56"/>
				</linearGradient>
				<path style="fill:url(#SVGID_00000034791002825651708280000004186191523432996740_);" d="M2138.47,964.906
					c431.685-326.941,1036.828-100.067,1037.052-99.259c0.796,0.267,195.208,616.631-154.152,1030.324
					c-316.891,375.245-933.278,592.615-1051.309,631.697c-12.696,4.204-33.089,9.532-38.528-2.686
					c-105.774-237.6-269.65-401.634-479.713-505.612c-11.626-5.754-4.912-25.451-0.192-37.534
					C1496.258,1867.613,1746.228,1261.975,2138.47,964.906z"/>
				<g style="opacity:0.3;">
					
						<linearGradient id="SVGID_00000134957444793775368080000002540425648412028584_" gradientUnits="userSpaceOnUse" x1="-2101.3" y1="943.762" x2="-789.2631" y2="-437.117" gradientTransform="matrix(-0.6881 -0.7256 -0.7256 0.6881 1695.6718 13.3486)">
						<stop  offset="0" style="stop-color:#FFC444"/>
						<stop  offset="0.9964" style="stop-color:#F36F56"/>
					</linearGradient>
					<path style="fill:url(#SVGID_00000134957444793775368080000002540425648412028584_);" d="M2299.139,1575.649
						c241.314-181.214,426.877-66.221,657.092-221.269c84.062-56.615,181.082-153.956,253.802-335.726
						c34.535,209.354,52.583,591.648-188.663,877.318c-316.89,375.244-933.277,592.615-1051.308,631.697
						c-12.696,4.204-33.089,9.532-38.529-2.686c-53.436-120.033-121.72-221.263-203.277-305.488
						c86.118-35.781,150.648-80.349,199.979-124.7C2127.19,1915.921,2079.27,1740.76,2299.139,1575.649z"/>
				</g>
				
					<linearGradient id="SVGID_00000011000943748127322860000010472362563661292473_" gradientUnits="userSpaceOnUse" x1="-2178.2654" y1="-230.4867" x2="-1095.2112" y2="-230.4867" gradientTransform="matrix(-0.6881 -0.7256 -0.7256 0.6881 1695.6718 13.3486)">
					<stop  offset="0" style="stop-color:#AA80F9"/>
					<stop  offset="0.9964" style="stop-color:#6165D7"/>
				</linearGradient>
				<path style="fill:url(#SVGID_00000011000943748127322860000010472362563661292473_);" d="M2881.668,1144.307
					c-128.837-135.866-292.84-265.656-448.201-321.271c320.588-85.019,643.952,9.321,723.533,36.004
					c11.785,3.952,20.823,13.483,24.142,25.461c22.419,80.886,99.451,408.805-2.446,724.418
					C3140.365,1468.123,3010.503,1280.171,2881.668,1144.307z"/>
				
					<linearGradient id="SVGID_00000089555336881139817210000004712537208866486913_" gradientUnits="userSpaceOnUse" x1="-2031.0027" y1="-30.0999" x2="-1539.4316" y2="-547.4636" gradientTransform="matrix(-0.6881 -0.7256 -0.7256 0.6881 1695.6718 13.3486)">
					<stop  offset="0" style="stop-color:#AA80F9"/>
					<stop  offset="0.9964" style="stop-color:#6165D7"/>
				</linearGradient>
				<path style="opacity:0.3;fill:url(#SVGID_00000089555336881139817210000004712537208866486913_);" d="M3210.028,1018.667
					c0.162,0.978,0.323,1.957,0.483,2.942c0.272,1.67,0.544,3.346,0.814,5.038c0.269,1.685,0.535,3.388,0.802,5.094
					c0.252,1.621,0.505,3.244,0.755,4.884c0.277,1.81,0.551,3.636,0.823,5.468c0.234,1.57,0.467,3.142,0.699,4.729
					c0.282,1.935,0.562,3.887,0.84,5.847c0.216,1.524,0.432,3.052,0.646,4.591c0.285,2.056,0.568,4.128,0.848,6.21
					c0.199,1.475,0.397,2.954,0.593,4.441c0.287,2.179,0.57,4.374,0.851,6.579c0.182,1.424,0.362,2.851,0.541,4.284
					c0.285,2.291,0.566,4.599,0.844,6.917c0.168,1.397,0.335,2.797,0.5,4.203c0.278,2.383,0.553,4.781,0.823,7.191
					c0.153,1.363,0.305,2.728,0.455,4.099c0.273,2.495,0.542,5.006,0.806,7.531c0.137,1.317,0.274,2.637,0.409,3.962
					c0.264,2.596,0.523,5.207,0.777,7.832c0.124,1.283,0.248,2.571,0.369,3.862c0.253,2.698,0.501,5.412,0.742,8.14
					c0.11,1.24,0.218,2.484,0.326,3.731c0.24,2.794,0.474,5.603,0.701,8.426c0.097,1.213,0.193,2.43,0.289,3.648
					c0.224,2.882,0.442,5.778,0.652,8.69c0.085,1.183,0.168,2.371,0.251,3.559c0.206,2.963,0.406,5.94,0.595,8.932
					c0.074,1.159,0.146,2.323,0.217,3.487c0.186,3.051,0.366,6.115,0.534,9.196c0.062,1.121,0.121,2.246,0.18,3.372
					c0.165,3.14,0.321,6.292,0.467,9.461c0.05,1.087,0.097,2.179,0.145,3.27c0.141,3.221,0.273,6.454,0.393,9.704
					c0.039,1.058,0.075,2.121,0.112,3.181c0.115,3.31,0.22,6.633,0.313,9.971c0.028,1.006,0.053,2.016,0.078,3.024
					c0.087,3.402,0.164,6.817,0.228,10.247c0.018,0.97,0.031,1.944,0.048,2.917c0.056,3.479,0.103,6.97,0.132,10.477
					c0.009,0.946,0.013,1.896,0.019,2.844c0.024,3.542,0.037,7.095,0.033,10.663c-0.001,0.928-0.006,1.859-0.009,2.788
					c-0.012,3.614-0.034,7.237-0.075,10.877c-0.01,0.883-0.024,1.771-0.036,2.656c-0.048,3.689-0.109,7.389-0.188,11.105
					c-0.018,0.854-0.041,1.714-0.061,2.57c-0.087,3.761-0.188,7.533-0.309,11.319c-0.026,0.809-0.056,1.621-0.083,2.431
					c-0.13,3.838-0.273,7.685-0.437,11.547c-0.033,0.777-0.072,1.558-0.106,2.337c-0.174,3.908-0.362,7.824-0.573,11.755
					c-0.039,0.73-0.083,1.464-0.123,2.194c-0.22,3.982-0.456,7.974-0.716,11.978c-0.044,0.693-0.094,1.388-0.141,2.081
					c-0.269,4.052-0.554,8.112-0.865,12.186c-0.05,0.647-0.104,1.297-0.154,1.945c-0.321,4.119-0.658,8.246-1.023,12.385
					c-0.055,0.62-0.114,1.241-0.17,1.861c-0.374,4.181-0.766,8.37-1.187,12.569c-0.056,0.558-0.117,1.119-0.174,1.677
					c-0.432,4.264-0.885,8.536-1.366,12.819c-0.056,0.502-0.118,1.006-0.175,1.508c-0.494,4.339-1.007,8.685-1.553,13.041
					c-0.056,0.451-0.117,0.904-0.174,1.356c-0.558,4.414-1.137,8.836-1.748,13.266c-0.053,0.375-0.108,0.751-0.16,1.125
					c-0.627,4.508-1.277,9.022-1.961,13.544c-0.045,0.299-0.094,0.599-0.14,0.898c-0.7,4.598-1.426,9.202-2.187,13.813
					c-0.035,0.219-0.075,0.438-0.111,0.656c-0.778,4.695-1.583,9.397-2.425,14.105c-0.02,0.111-0.042,0.223-0.062,0.335
					c-7.898,44.058-18.671,88.59-32.971,132.88c-24.498-89.984-86.406-199.22-161.517-301.82
					C3084.563,1247.301,3154.403,1157.702,3210.028,1018.667z"/>
				
					<linearGradient id="SVGID_00000114038057266785990460000014022135927009730958_" gradientUnits="userSpaceOnUse" x1="-2073.3481" y1="504.4785" x2="-1200.1038" y2="504.4785" gradientTransform="matrix(-0.6881 -0.7256 -0.7256 0.6881 1695.6718 13.3486)">
					<stop  offset="0.0036" style="stop-color:#EBEFF2"/>
					<stop  offset="1" style="stop-color:#FFFFFF"/>
				</linearGradient>
				<path style="fill:url(#SVGID_00000114038057266785990460000014022135927009730958_);" d="M2155.422,1231.268
					c-157.58,149.428-150.817,412.41,15.107,587.385c165.924,174.975,428.175,195.685,585.756,46.257
					c157.58-149.429,150.816-412.41-15.107-587.385C2575.254,1102.549,2313.002,1081.839,2155.422,1231.268z"/>
				
					<linearGradient id="SVGID_00000102540316447624527400000004771090844286735035_" gradientUnits="userSpaceOnUse" x1="-2073.3479" y1="518.7908" x2="-1200.0933" y2="518.7908" gradientTransform="matrix(-0.6881 -0.7256 -0.7256 0.6881 1695.6718 13.3486)">
					<stop  offset="0.0036" style="stop-color:#EBEFF2"/>
					<stop  offset="1" style="stop-color:#FFFFFF"/>
				</linearGradient>
				<path style="fill:url(#SVGID_00000102540316447624527400000004771090844286735035_);" d="M2299.139,1575.649
					c196.919-147.876,356.718-98.527,533.946-159.61c67.758,156.237,42.934,335.331-76.801,448.87
					c-157.581,149.429-419.833,128.719-585.756-46.256c-13.571-14.312-26.056-29.222-37.495-44.601
					C2167.922,1706.629,2212.958,1640.366,2299.139,1575.649z"/>
				
					<linearGradient id="SVGID_00000093169669241919229180000001698414553748234382_" gradientUnits="userSpaceOnUse" x1="-1501.0192" y1="225.3838" x2="-1715.6461" y2="666.7866" gradientTransform="matrix(-0.6881 -0.7256 -0.7256 0.6881 1695.6718 13.3486)">
					<stop  offset="0.0036" style="stop-color:#EBEFF2"/>
					<stop  offset="1" style="stop-color:#FFFFFF"/>
				</linearGradient>
				<path style="fill:url(#SVGID_00000093169669241919229180000001698414553748234382_);" d="M2180.472,1257.684
					c-144.441,136.969-138.241,378.023,13.848,538.408c152.089,160.385,392.474,179.369,536.915,42.4
					c144.441-136.969,138.241-378.023-13.848-538.408C2565.298,1139.698,2324.913,1120.715,2180.472,1257.684z"/>
				
					<linearGradient id="SVGID_00000144325376192206013040000008894041892932450464_" gradientUnits="userSpaceOnUse" x1="-2017.0649" y1="1059.5094" x2="-1366.8812" y2="110.6934" gradientTransform="matrix(-0.6881 -0.7256 -0.7256 0.6881 1695.6718 13.3486)">
					<stop  offset="0" style="stop-color:#444B8C"/>
					<stop  offset="0.9964" style="stop-color:#26264F"/>
				</linearGradient>
				<path style="fill:url(#SVGID_00000144325376192206013040000008894041892932450464_);" d="M2215.968,1295.116
					c-125.824,119.314-120.422,329.297,12.062,469.01c132.485,139.712,341.885,156.248,467.708,36.934
					c125.823-119.314,120.422-329.297-12.063-469.009C2551.191,1192.339,2341.791,1175.802,2215.968,1295.116z"/>
				
					<linearGradient id="SVGID_00000153687590271274082750000016179550942176712594_" gradientUnits="userSpaceOnUse" x1="-1660.2802" y1="1884.9958" x2="-1633.2813" y2="1532.6592" gradientTransform="matrix(-0.6881 -0.7256 -0.7256 0.6881 1695.6718 13.3486)">
					<stop  offset="0" style="stop-color:#FFC444"/>
					<stop  offset="0.9964" style="stop-color:#F36F56"/>
				</linearGradient>
				<path style="fill:url(#SVGID_00000153687590271274082750000016179550942176712594_);" d="M1440.219,2008.768
					c-42.995,40.771,34.017,191.793,172.012,337.316s284.716,230.441,327.712,189.67c42.995-40.771-34.017-191.792-172.012-337.315
					C1629.937,2052.915,1483.215,1967.997,1440.219,2008.768z"/>
				
					<linearGradient id="SVGID_00000041991077747045269110000018422341585251226299_" gradientUnits="userSpaceOnUse" x1="-1935.9659" y1="1634.0197" x2="-1337.422" y2="1634.0197" gradientTransform="matrix(-0.6881 -0.7256 -0.7256 0.6881 1695.6718 13.3486)">
					<stop  offset="0" style="stop-color:#AA80F9"/>
					<stop  offset="0.9964" style="stop-color:#6165D7"/>
				</linearGradient>
				<path style="fill:url(#SVGID_00000041991077747045269110000018422341585251226299_);" d="M1675.566,2180.622l107.237,113.087
					c57.056,60.169,71.939,148.922,37.631,224.411l-32.555,71.633c-11.982,26.365-46.847,32.211-66.774,11.197l-355.622-375.022
					c-19.927-21.014-12.239-55.519,14.725-66.085l73.259-28.708C1530.672,2100.882,1618.509,2120.453,1675.566,2180.622z"/>
				
					<linearGradient id="SVGID_00000120544656092237833740000001785638295109980833_" gradientUnits="userSpaceOnUse" x1="-1596.9084" y1="1621.9474" x2="-1744.0548" y2="2064.7373" gradientTransform="matrix(-0.6881 -0.7256 -0.7256 0.6881 1695.6718 13.3486)">
					<stop  offset="0" style="stop-color:#AA80F9"/>
					<stop  offset="0.9964" style="stop-color:#6165D7"/>
				</linearGradient>
				<path style="fill:url(#SVGID_00000120544656092237833740000001785638295109980833_);" d="M1352.056,2181.666
					c-40.573,38.474,18.857,167.022,132.741,287.119c113.885,120.097,239.097,186.265,279.671,147.791
					c40.573-38.475-18.857-167.022-132.741-287.119C1517.842,2209.36,1392.63,2143.192,1352.056,2181.666z"/>
				
					<linearGradient id="SVGID_00000098219869966433473720000015338469705782972062_" gradientUnits="userSpaceOnUse" x1="-1606.4351" y1="1650.6149" x2="-1718.2662" y2="1987.135" gradientTransform="matrix(-0.6881 -0.7256 -0.7256 0.6881 1695.6718 13.3486)">
					<stop  offset="0" style="stop-color:#444B8C"/>
					<stop  offset="0.9964" style="stop-color:#26264F"/>
				</linearGradient>
				<path style="fill:url(#SVGID_00000098219869966433473720000015338469705782972062_);" d="M1401.546,2233.855
					c-30.836,29.241,14.331,126.937,100.883,218.21c86.552,91.274,181.714,141.562,212.55,112.322
					c30.836-29.241-14.331-126.937-100.883-218.21C1527.543,2254.903,1432.381,2204.615,1401.546,2233.855z"/>
				<g style="opacity:0.3;">
					
						<linearGradient id="SVGID_00000069367461409203119800000014150662415137175707_" gradientUnits="userSpaceOnUse" x1="-2057.4858" y1="1031.8043" x2="-1407.3141" y2="83.0056" gradientTransform="matrix(-0.6881 -0.7256 -0.7256 0.6881 1695.6718 13.3486)">
						<stop  offset="0" style="stop-color:#444B8C"/>
						<stop  offset="0.9964" style="stop-color:#26264F"/>
					</linearGradient>
					<path style="fill:url(#SVGID_00000069367461409203119800000014150662415137175707_);" d="M2299.139,1575.649
						c167.479-125.768,308.107-108.877,455.443-138.588c57.159,126.048,38.191,271.983-58.844,363.999
						c-125.823,119.314-335.223,102.779-467.708-36.934c-19.365-20.421-35.992-42.35-49.913-65.27
						C2207.419,1657.245,2245.214,1616.144,2299.139,1575.649z"/>
				</g>
			</g>
			
				<linearGradient id="SVGID_00000126298925045867502110000003540594532165632906_" gradientUnits="userSpaceOnUse" x1="1776.0643" y1="2888.585" x2="1003.7608" y2="4090.8328" gradientTransform="matrix(0.988 0.1546 -0.1546 0.988 -73.1917 -860.5809)">
				<stop  offset="0" style="stop-color:#FFC444"/>
				<stop  offset="0.9964" style="stop-color:#F36F56"/>
			</linearGradient>
			<path style="fill:url(#SVGID_00000126298925045867502110000003540594532165632906_);" d="M1511.577,2365.324
				c19.945,40.283-203.486,199.913-402.114,303.766c-34.626,18.104-126.463,64.785-254.823,109.221
				c-211.404,73.185-337.834,124.69-386.089,72.567c-31.537-34.064-22.932-103.772,3.102-148.603
				c53.02-91.302,159.009-46.139,272.161-142.773c91.49-78.134,65.587-144.712,145.444-182.746
				c76.427-36.399,127.947,11.344,265.983,25.496C1369.431,2424.211,1496.567,2335.008,1511.577,2365.324z"/>
			
				<linearGradient id="SVGID_00000113334801196318216650000017081088605618526624_" gradientUnits="userSpaceOnUse" x1="3471.207" y1="3202.7839" x2="2698.9055" y2="4405.0288" gradientTransform="matrix(0.9048 0.4259 -0.4259 0.9048 -151.0691 -1679.7587)">
				<stop  offset="0" style="stop-color:#FFC444"/>
				<stop  offset="0.9964" style="stop-color:#F36F56"/>
			</linearGradient>
			<path style="fill:url(#SVGID_00000113334801196318216650000017081088605618526624_);" d="M1610.297,2465.688
				c-182.653,62.838-283.492,151.55-342.022,221.791c-69.468,83.368-75.488,136.1-162.761,196.181
				c-86.017,59.217-150.456,56.379-207.035,131.336c-12.618,16.717-67.944,90.014-44.731,141.745
				c39.297,87.575,295.947,96.128,478.866-7.762c35.944-20.415,175.075-99.436,197.516-232.62
				c10.976-65.143-14.633-91.792-16.5-170.572C1511.69,2663.882,1536.468,2570.146,1610.297,2465.688z"/>
		</g>
		<g>
			<path style="fill:#26264F;" d="M1495.231,1080.821c12.374-20.879,33.876-58.339,22.445-97.26
				c-10.998-37.451-49.219-65.978-87.996-71.58c-9.494-1.373-39.857-4.38-88.589,24.697
				c-69.772,41.635-59.236,103.552-113.488,121.159c-31.797,10.32-40.799-8.339-92.722,2.671
				c-39.475,8.371-45.037,21.439-75.972,31.277c-70.498,22.421-96.439-28.017-173.528-15.9
				c-55.285,8.69-115.587,46.209-124.994,92.893c-5.517,27.382,11.465,33.156,13.11,77.251
				c1.912,51.284-20.121,68.635-27.602,115.592c-7.38,46.32,2.741,100.479,27.787,138.714
				c62.361,95.2,211.621,83.068,227.846,81.526c79.157-7.529,131.357-44.781,200.128-95.215
				C1295.48,1417.837,1362.063,1305.499,1495.231,1080.821z"/>
			
				<linearGradient id="SVGID_00000088847337357174357790000011024639791803935407_" gradientUnits="userSpaceOnUse" x1="1519.6956" y1="468.775" x2="1607.7998" y2="539.452" gradientTransform="matrix(-0.7191 0.695 0.695 0.7191 2829.396 -674.2415)">
				<stop  offset="0" style="stop-color:#311944"/>
				<stop  offset="1" style="stop-color:#A03976"/>
			</linearGradient>
			<path style="fill:url(#SVGID_00000088847337357174357790000011024639791803935407_);" d="M2007.867,817.057l30.4-29.357
				c7.882-7.39,16.271-14.896,25.183-22.449c13.007-11.024,25.763-20.986,38.067-29.982c0,0,2.561,5.231-4.391,12.811
				c-6.951,7.582-20.712,18.95-24.089,21.839c-3.379,2.888,8.688,13.81,1.556,26.836c-7.13,13.025-24.375,13.907-30.573,7.914
				l-22.346,21.682L2007.867,817.057z"/>
			
				<linearGradient id="SVGID_00000101785845951840088930000016083457484942680199_" gradientUnits="userSpaceOnUse" x1="1606.2156" y1="434.7795" x2="2200.075" y2="434.7795" gradientTransform="matrix(-0.7191 0.695 0.695 0.7191 2829.396 -674.2415)">
				<stop  offset="0" style="stop-color:#FFC444"/>
				<stop  offset="0.9964" style="stop-color:#F36F56"/>
			</linearGradient>
			<path style="fill:url(#SVGID_00000101785845951840088930000016083457484942680199_);" d="M2021.068,800.803
				c9.017,9.33,18.032,18.658,27.048,27.988c-2.046,15.848-7.198,40.667-22.489,65.901
				c-35.802,59.096-87.868,55.559-167.266,116.014c-35.592,27.101-21.738,25.231-99.879,97.999
				c-64.932,60.469-97.921,90.763-123.619,93.62c-81.951,9.117-156.269-123.992-169.121-147.616
				c81.628-42.447,151.207-71.067,200.959-89.709c112.193-42.036,205.125-63.878,321.488-141.247
				C2002.218,814.424,2013.536,806.319,2021.068,800.803z"/>
			<path style="fill:#26264F;" d="M1845.981,2075.514c-0.365,0.113-1.196,0.174-2.366,0.284
				c-5.232,0.489-17.226,1.932-24.498,13.192c-8.895,13.774-5.832,43.684-0.835,79.387c4.997,35.703,22.428,3.248,24.053-2.268
				c1.627-5.515,18.862-80.456,18.862-80.456L1845.981,2075.514z"/>
			
				<linearGradient id="SVGID_00000114773762677622054270000006696958417561858199_" gradientUnits="userSpaceOnUse" x1="1228.9526" y1="1411.9224" x2="1197.9673" y2="1555.2294" gradientTransform="matrix(-0.8615 0.5076 0.5076 0.8615 2064.9126 97.0066)">
				<stop  offset="0" style="stop-color:#311944"/>
				<stop  offset="1" style="stop-color:#A03976"/>
			</linearGradient>
			<path style="fill:url(#SVGID_00000114773762677622054270000006696958417561858199_);" d="M1875.044,2069.501l-28.788,30.747
				c0,0-9.832-0.778-8.242-13.989l3.991-33.182L1875.044,2069.501z"/>
			
				<linearGradient id="SVGID_00000171687168589268726180000014543339621535315588_" gradientUnits="userSpaceOnUse" x1="1606.2155" y1="498.8674" x2="2199.9458" y2="498.8674" gradientTransform="matrix(-0.7191 0.695 0.695 0.7191 2829.396 -674.2415)">
				<stop  offset="0" style="stop-color:#FFC444"/>
				<stop  offset="0.9964" style="stop-color:#F36F56"/>
			</linearGradient>
			<path style="opacity:0.3;fill:url(#SVGID_00000171687168589268726180000014543339621535315588_);" d="M1684.979,1074.447
				c6.745-12.542,22.681-49.396,60.016-66.082c29.708-13.276,43.198-0.476,74.165-12.429c38.134-14.714,34.959-40.787,78.025-78.1
				c49.659-43.023,78.402-29.601,105.173-63.942c8.842-11.342,17.119-27.555,20.456-51.286c8.435,8.728,16.868,17.454,25.303,26.182
				c-2.046,15.848-7.198,40.667-22.489,65.901c-35.802,59.096-87.868,55.559-167.266,116.014
				c-35.592,27.101-21.738,25.231-99.879,97.999c-64.932,60.469-97.921,90.763-123.619,93.62
				c-33.499,3.728-65.717-16.32-92.987-42.931C1631.909,1134.864,1669.55,1103.133,1684.979,1074.447z"/>
			
				<linearGradient id="SVGID_00000018222681071570661530000012931534750448317321_" gradientUnits="userSpaceOnUse" x1="832.718" y1="1249.3533" x2="1358.1367" y2="1249.3533" gradientTransform="matrix(-0.8615 0.5076 0.5076 0.8615 2064.9126 97.0066)">
				<stop  offset="0" style="stop-color:#444B8C"/>
				<stop  offset="0.9964" style="stop-color:#3E4177"/>
			</linearGradient>
			<path style="fill:url(#SVGID_00000018222681071570661530000012931534750448317321_);" d="M1515.227,1446.639
				c50.691-12.466,229.615-49.879,379.074,55.883c17.026,12.048,50.044,35.81,74.808,72.807
				c80.206,119.82,35.093,320.55-94.527,508.015c-14.804-8.31-29.607-16.616-44.411-24.925
				c-10.874-37.73-21.95-94.169-13.664-160.521c11.155-89.33,48.739-127.269,29.074-179.098
				c-22.64-59.672-99.934-81.783-114.464-85.605c-107.883-28.38-169.258,53.365-265.288,25.256
				c-49.76-14.567-83.871-51.325-105.969-82.881C1411.651,1532.593,1463.439,1489.615,1515.227,1446.639z"/>
			
				<linearGradient id="SVGID_00000161624723220722331580000000858087200945939850_" gradientUnits="userSpaceOnUse" x1="880.4789" y1="697.9086" x2="1743.6007" y2="697.9086" gradientTransform="matrix(-0.8615 0.5076 0.5076 0.8615 2064.9126 97.0066)">
				<stop  offset="0" style="stop-color:#FFC444"/>
				<stop  offset="0.9964" style="stop-color:#F36F56"/>
			</linearGradient>
			<path style="fill:url(#SVGID_00000161624723220722331580000000858087200945939850_);" d="M923.819,1194.444
				c12.097,16.308,36.223,43.507,74.118,54.621c59.28,17.385,115.089-15.497,159.377-42.46
				c64.19-39.082,50.678-54.395,112.268-95.918c71.849-48.441,191.862-71.013,206.485-73.576
				c42.308-7.412,63.777-11.024,79.223-6.454c57.606,17.041,101.261,88.703,101.695,152.705
				c0.122,18.03-6.807,52.433-20.666,121.238c-7.283,36.151-12.477,57.382-1.756,66.106c18.98,15.442,68.64-23.939,79.896-11.106
				c6.921,7.889-5.924,29.566-8.255,33.514c-37.551,63.582-101.076,71.776-163.74,114.603
				c-98.18,67.099-66.54,131.937-156.38,171.782c-56.654,25.126-88.331,7.814-129.751,45.243
				c-41.12,37.161-29.837,72.244-66.394,93.926c-56.317,33.402-152.755-8.536-153.012-35.619
				c-0.187-19.639,50.355-14.728,90.175-62.05c34.611-41.132,14.753-66.617,51.013-121.346
				c25.885-39.071,38.255-29.473,79.554-80.679c26.736-33.151,52.572-65.181,57.603-111.295c4.386-40.204-8.98-73.345-18.142-91.411
				c-9.74,13.314-89.636,118.934-217.701,117.426c-24.998-0.294-116.89-1.375-169.274-75.579
				c-45.013-63.76-29.642-137.295-26.437-151.312C897.085,1202.685,910.451,1198.563,923.819,1194.444z"/>
			
				<linearGradient id="SVGID_00000137835914301621406830000000445739080920521401_" gradientUnits="userSpaceOnUse" x1="1045.7031" y1="451.1806" x2="1025.3683" y2="505.4072" gradientTransform="matrix(-0.8615 0.5076 0.5076 0.8615 2064.9126 97.0066)">
				<stop  offset="0" style="stop-color:#311944"/>
				<stop  offset="1" style="stop-color:#A03976"/>
			</linearGradient>
			<path style="fill:url(#SVGID_00000137835914301621406830000000445739080920521401_);" d="M1440.735,988.061
				c0,0-5.482,45.062-22.071,55.435c-16.589,10.372-43.417,23.944-46.365,27.61c-2.948,3.667,103.031,14.699,155.443-11.968
				c0,0,1.693-8.583-19.978-11.644c-5.765-0.815-18.964-2.38-24.31-1.944c-13.229,1.08-24.58-9.253-24.521-22.527l0.109-24.94
				L1440.735,988.061z"/>
			
				<linearGradient id="SVGID_00000182522451563055055700000005177678661740702644_" gradientUnits="userSpaceOnUse" x1="880.4799" y1="855.6538" x2="1743.599" y2="855.6538" gradientTransform="matrix(-0.8615 0.5076 0.5076 0.8615 2064.9126 97.0066)">
				<stop  offset="0" style="stop-color:#FFC444"/>
				<stop  offset="0.9964" style="stop-color:#F36F56"/>
			</linearGradient>
			<path style="opacity:0.3;fill:url(#SVGID_00000182522451563055055700000005177678661740702644_);" d="M1158.578,1795.005
				c9.182-16.822,3.417-32.218,21.067-59.613c19.476-30.229,40.071-32.552,70.939-66.52c21.846-24.035,17.97-29.956,36.29-52.85
				c49.475-61.825,95.301-40.595,132.582-91.602c32.675-44.706,11.675-80.452,46.662-103.911
				c32.302-21.659,65.953-1.747,80.887-22.935c16.006-22.709-19.245-50.42-10.571-90.42c10.417-48.037,70.187-49.279,98.41-96.192
				c10.748-17.863,18.242-44.792,10.405-86.703c7.388,19.233,11.604,39.52,11.737,59.103c0.122,18.03-6.807,52.433-20.666,121.238
				c-7.283,36.151-12.477,57.382-1.756,66.106c18.98,15.442,68.64-23.939,79.896-11.106c6.921,7.889-5.924,29.566-8.255,33.514
				c-37.551,63.582-101.076,71.776-163.74,114.603c-98.18,67.099-66.54,131.937-156.38,171.782
				c-56.654,25.126-88.331,7.814-129.751,45.243c-41.12,37.161-29.837,72.244-66.394,93.926
				c-24.715,14.66-57.153,14.798-85.803,8.059C1135.867,1820.296,1151.389,1808.17,1158.578,1795.005z"/>
			
				<linearGradient id="SVGID_00000176757564421959161250000001018558741765114303_" gradientUnits="userSpaceOnUse" x1="1038.7802" y1="382.5507" x2="970.0301" y2="467.762" gradientTransform="matrix(-0.8615 0.5076 0.5076 0.8615 2064.9126 97.0066)">
				<stop  offset="0" style="stop-color:#311944"/>
				<stop  offset="1" style="stop-color:#A03976"/>
			</linearGradient>
			<path style="fill:url(#SVGID_00000176757564421959161250000001018558741765114303_);" d="M1438.261,1004.023
				c0,0,10.888,14.841,27.866,8.584c15.201-5.601,5.985-44.88-6.101-49.323c-4.031-1.482-11.425-0.796-16.358,2.304
				c-3.469,2.181-12.713,13.744-7.349,26.65c-3.848-1.102-7.229-0.079-8.07,1.828c-1.068,2.418,2.199,5.697,2.939,6.44
				C1433.753,1003.079,1436.839,1003.792,1438.261,1004.023z"/>
			<g>
				
					<linearGradient id="SVGID_00000156579157870140974270000000117068188079542144_" gradientUnits="userSpaceOnUse" x1="5222.6846" y1="236.642" x2="4273.7915" y2="1287.7246" gradientTransform="matrix(-1 0 0 1 5411.0322 0)">
					<stop  offset="0" style="stop-color:#FF9085"/>
					<stop  offset="1" style="stop-color:#FB6FBB"/>
				</linearGradient>
				<path style="fill:url(#SVGID_00000156579157870140974270000000117068188079542144_);" d="M919.626,558.849
					c-96.498-47.85-188.52-34.947-234.466-14.615c-54.316,24.036-72.333,42.071-120.417,51.149
					c-42.738,8.068-87.106-44.354-120.416-7.307c-2.243,2.494-5.004,5.599-8.106,10.96c-23.864,41.248,4.326,91.066-3.473,178.108
					c-3.992,44.534-13.647,56.894-22.579,142.485c-3.396,32.547-2.686,37.342-1.737,41.101
					c14.596,57.755,130.39,46.842,211.888,21.922c112.357-34.356,148.531-91.975,222.309-65.762
					c34.033,12.091,59.895,36.275,76.418,54.802C911.521,834.687,927.153,695.854,919.626,558.849z"/>
				<path style="fill:#A2A7AE;" d="M919.322,1344.098c4.388,0,7.943-3.556,7.943-7.943V521.126c0-4.388-3.556-7.943-7.943-7.943
					c-4.388,0-7.943,3.555-7.943,7.943v815.028C911.379,1340.542,914.934,1344.098,919.322,1344.098z"/>
			</g>
			
				<linearGradient id="SVGID_00000151538844202905837090000015557021632775745427_" gradientUnits="userSpaceOnUse" x1="894.4263" y1="1245.6318" x2="903.5101" y2="1197.5411">
				<stop  offset="0" style="stop-color:#311944"/>
				<stop  offset="1" style="stop-color:#A03976"/>
			</linearGradient>
			<path style="fill:url(#SVGID_00000151538844202905837090000015557021632775745427_);" d="M893.612,1203.755
				c0,0-6.779-27.575-6.779-41.218s37.519-13.643,44.34-13.643c6.821,0,3.411,23.875-10.232,25.581
				c-9.856,1.232-10.812,14.241-10.583,21.37c0.086,2.689-1.786,5.023-4.428,5.533L893.612,1203.755z"/>
		</g>
	</g>
</g>
</svg>
