<?xml version="1.0" encoding="utf-8"?>
<!-- Generator: Adobe Illustrator 27.5.0, SVG Export Plug-In . SVG Version: 6.00 Build 0)  -->
<svg version="1.1" xmlns="http://www.w3.org/2000/svg" xmlns:xlink="http://www.w3.org/1999/xlink" x="0px" y="0px"
	 viewBox="0 0 500 500" style="enable-background:new 0 0 500 500;" xml:space="preserve">
<g id="BACKGROUND">
	<rect style="fill:#D8DBFF;" width="500" height="500"/>
</g>
<g id="OBJECTS">
	<path style="fill:#C4C8FF;" d="M221.664,308.807c-25.28,5.912-52.226,6.067-76.889-2.046c-24.662-8.113-46.834-24.888-59.22-47.706
		c-18.431-33.954-12.475-78.534,11.505-108.825c14.599-18.442,34.837-31.785,56.318-41.369c21.48-9.583,44.33-15.65,67.066-21.677
		c32.238-8.546,65.211-15.041,98.359-18.719c12.066-1.339,24.362-2.304,36.275,0.037c11.913,2.34,23.558,8.387,30.256,18.512
		c6.698,10.126,7.309,24.658-0.475,33.975c-3.866,4.627-9.297,7.603-14.502,10.648c-5.204,3.045-10.483,6.433-13.703,11.531
		c-3.22,5.098-3.775,12.369,0.283,16.829c4.534,4.984,12.288,4.532,19.013,4.948c19.81,1.225,38.434,14.267,46.359,32.464
		c7.926,18.197,4.79,40.716-7.805,56.055c-11.722,14.275-29.803,21.588-47.5,26.879c-30.353,9.076-61.984,13.867-93.663,14.189
		C255.225,294.718,234.484,296.006,221.664,308.807z"/>
	<g>
		<ellipse style="fill:#C4C8FF;" cx="254.566" cy="455.615" rx="196.412" ry="7.281"/>
		<g>
			<rect x="99.412" y="424.304" style="fill:#FE5615;" width="57.76" height="29.912"/>
			
				<line style="fill:none;stroke:#FFFFFF;stroke-width:0.8;stroke-linecap:round;stroke-linejoin:round;stroke-miterlimit:10;" x1="103.325" y1="428.035" x2="103.325" y2="450.12"/>
		</g>
		<g>
			<rect x="188.803" y="393.109" style="fill:#FE5615;" width="57.76" height="61.106"/>
			
				<line style="fill:none;stroke:#FFFFFF;stroke-width:0.8;stroke-linecap:round;stroke-linejoin:round;stroke-miterlimit:10;" x1="192.842" y1="396.486" x2="192.842" y2="451.576"/>
		</g>
		<g>
			<rect x="278.193" y="342.872" style="fill:#FE5615;" width="57.76" height="111.343"/>
			
				<line style="fill:none;stroke:#FFFFFF;stroke-width:0.8;stroke-linecap:round;stroke-linejoin:round;stroke-miterlimit:10;" x1="282.57" y1="346.249" x2="282.57" y2="451.576"/>
		</g>
		<g>
			<rect x="367.584" y="290.218" style="fill:#FE5615;" width="57.76" height="163.997"/>
			
				<line style="fill:none;stroke:#FFFFFF;stroke-width:0.8;stroke-linecap:round;stroke-linejoin:round;stroke-miterlimit:10;" x1="371.74" y1="292.614" x2="371.74" y2="451.576"/>
		</g>
	</g>
	<g>
		<path style="fill:#814EFF;" d="M275.453,65.005c0-0.57-0.462-1.031-1.031-1.031c-0.57,0-1.031,0.462-1.031,1.031
			c0,0.57,0.462,1.031,1.031,1.031C274.991,66.036,275.453,65.575,275.453,65.005z"/>
		<path style="fill:#FFFFFF;" d="M397.495,224.812c0-0.57-0.462-1.031-1.031-1.031s-1.031,0.462-1.031,1.031
			c0,0.57,0.462,1.032,1.031,1.032S397.495,225.382,397.495,224.812z"/>
		<path style="fill:#FFFFFF;" d="M365.727,89.94c0-0.57-0.462-1.031-1.031-1.031c-0.57,0-1.031,0.462-1.031,1.031
			c0,0.57,0.462,1.031,1.031,1.031C365.265,90.971,365.727,90.509,365.727,89.94z"/>
		<path style="fill:#FFFFFF;" d="M379.081,244.864c0-0.57-0.462-1.031-1.031-1.031c-0.57,0-1.031,0.462-1.031,1.031
			c0,0.57,0.462,1.031,1.031,1.031C378.62,245.896,379.081,245.434,379.081,244.864z"/>
		<path style="fill:#FFFFFF;" d="M297.679,101.453c0-0.57-0.462-1.031-1.031-1.031c-0.57,0-1.031,0.462-1.031,1.031
			c0,0.57,0.462,1.031,1.031,1.031C297.217,102.485,297.679,102.023,297.679,101.453z"/>
		<circle style="fill:#814EFF;" cx="81.422" cy="294.803" r="1.031"/>
		<path style="fill:#814EFF;" d="M118.493,216.305c0-0.57-0.462-1.031-1.031-1.031c-0.57,0-1.031,0.462-1.031,1.031
			c0,0.57,0.462,1.032,1.031,1.032C118.032,217.337,118.493,216.875,118.493,216.305z"/>
		<path style="fill:#FFFFFF;" d="M131.135,90.069c0-0.57-0.462-1.031-1.032-1.031c-0.57,0-1.031,0.462-1.031,1.031
			c0,0.57,0.462,1.031,1.031,1.031C130.673,91.1,131.135,90.638,131.135,90.069z"/>
		<path style="fill:#FFFFFF;" d="M98.425,325.423c0-0.57-0.462-1.031-1.031-1.031c-0.57,0-1.031,0.462-1.031,1.031
			s0.462,1.031,1.031,1.031C97.964,326.454,98.425,325.993,98.425,325.423z"/>
		<rect x="330.975" y="95.747" style="fill:#814EFF;" width="4.641" height="4.641"/>
		<rect x="351.424" y="219.015" style="fill:#FFFFFF;" width="4.641" height="4.641"/>
		
			<rect x="426.118" y="255.408" style="fill:none;stroke:#060305;stroke-width:0.8;stroke-linecap:round;stroke-linejoin:round;stroke-miterlimit:10;" width="4.641" height="4.641"/>
		
			<rect x="92.753" y="82.818" style="fill:none;stroke:#060305;stroke-width:0.8;stroke-linecap:round;stroke-linejoin:round;stroke-miterlimit:10;" width="4.641" height="4.641"/>
		<rect x="137.562" y="240.967" style="fill:#FFFFFF;" width="4.641" height="4.641"/>
		
			<line style="fill:none;stroke:#060305;stroke-width:0.8;stroke-linecap:round;stroke-linejoin:round;stroke-miterlimit:10;" x1="367.584" y1="200.794" x2="363.87" y2="204.507"/>
		
			<line style="fill:none;stroke:#060305;stroke-width:0.8;stroke-linecap:round;stroke-linejoin:round;stroke-miterlimit:10;" x1="126.286" y1="176.104" x2="122.573" y2="179.817"/>
		
			<line style="fill:none;stroke:#060305;stroke-width:0.8;stroke-linecap:round;stroke-linejoin:round;stroke-miterlimit:10;" x1="120.35" y1="311.211" x2="116.636" y2="314.925"/>
		
			<line style="fill:none;stroke:#060305;stroke-width:0.8;stroke-linecap:round;stroke-linejoin:round;stroke-miterlimit:10;" x1="167.777" y1="77.297" x2="164.064" y2="81.01"/>
		
			<line style="fill:none;stroke:#060305;stroke-width:0.8;stroke-linecap:round;stroke-linejoin:round;stroke-miterlimit:10;" x1="351.888" y1="105.089" x2="355.601" y2="108.802"/>
		
			<line style="fill:none;stroke:#060305;stroke-width:0.8;stroke-linecap:round;stroke-linejoin:round;stroke-miterlimit:10;" x1="72.881" y1="125.85" x2="76.594" y2="129.564"/>
		
			<line style="fill:none;stroke:#060305;stroke-width:0.8;stroke-linecap:round;stroke-linejoin:round;stroke-miterlimit:10;" x1="336.009" y1="188.219" x2="339.722" y2="191.933"/>
		
			<line style="fill:none;stroke:#060305;stroke-width:0.8;stroke-linecap:round;stroke-linejoin:round;stroke-miterlimit:10;" x1="96.569" y1="237.254" x2="100.282" y2="240.967"/>
	</g>
	<g>
		<polygon style="fill:#2A2A59;" points="153.518,337.477 295.258,302.125 296.995,231.214 235.66,213.333 		"/>
		<g>
			<path style="fill:#2A2A59;" d="M344.908,338.928c-1.215-0.905-3.023-1.12-4.431-1.676c-5.259-2.077-9.767-6.002-12.548-10.924
				c-2.781-4.923-3.478-11.214-2.542-16.79c-14.48-0.548-28.478,0.596-42.806,2.757c-0.695,10.191-1.39,20.382-2.085,30.573
				l65.994,0.01C346.953,341.436,346.123,339.832,344.908,338.928z"/>
			<path style="fill:none;stroke:#060305;stroke-width:0.8;stroke-linecap:round;stroke-linejoin:round;stroke-miterlimit:10;" d="
				M281.718,337.454c21.107,1.102,42.214,2.204,63.321,3.307"/>
		</g>
		<g>
			<path style="fill:#2A2A59;" d="M244.593,365.372c-15.173,0.683-29.717,1.531-44.89,2.215c0.868,4.174,0.326,8.629-1.52,12.472
				c-1.846,3.844-4.983,7.052-8.784,8.985c-1.496,0.76-2.578,2.367-2.526,4.044l57.777,0.545
				C244.596,384.169,244.646,374.836,244.593,365.372z"/>
			<path style="fill:none;stroke:#060305;stroke-width:0.8;stroke-linecap:round;stroke-linejoin:round;stroke-miterlimit:10;" d="
				M189.24,391.681c18.091-1.176,36.181-2.352,54.272-3.528"/>
		</g>
		<g>
			<path style="fill:#FFFFFF;" d="M257.14,106.722c-7.519-1.479-14.456-2.783-21.975-4.262c-1.688,1.892-4.194,3.026-6.729,3.047
				c-2.535,0.02-4.909-1.261-6.626-3.126c-4.447,1.336-8.894,2.672-13.341,4.008c-1.529,27.827-2.859,55.886-3.108,83.754
				l69.641-10.747C271.238,154.675,265.148,130.41,257.14,106.722z"/>
			<path style="fill:none;stroke:#060305;stroke-width:0.8;stroke-linecap:round;stroke-linejoin:round;stroke-miterlimit:10;" d="
				M212.245,113.985c3.426,4.232,6.853,8.465,10.279,12.698c1.656-6.145,3.475-12.275,5.132-18.42"/>
			<path style="fill:none;stroke:#060305;stroke-width:0.8;stroke-linecap:round;stroke-linejoin:round;stroke-miterlimit:10;" d="
				M231.568,108.056c2.96,5.66,5.921,11.319,8.882,16.979c3.417-6.474,7.316-12.757,11.208-18.957"/>
			<path style="fill:none;stroke:#060305;stroke-width:0.8;stroke-linecap:round;stroke-linejoin:round;stroke-miterlimit:10;" d="
				M208.926,179.592c19.763-3.137,39.526-6.274,59.288-9.411"/>
			<path style="fill:none;stroke:#060305;stroke-width:0.8;stroke-linecap:round;stroke-linejoin:round;stroke-miterlimit:10;" d="
				M232.193,126.251c1.214,0.849,2.427,1.699,3.64,2.548"/>
			<path style="fill:none;stroke:#060305;stroke-width:0.8;stroke-linecap:round;stroke-linejoin:round;stroke-miterlimit:10;" d="
				M222.729,136.444c-0.121,1.699-0.243,3.398-0.364,5.096"/>
			<path style="fill:none;stroke:#060305;stroke-width:0.8;stroke-linecap:round;stroke-linejoin:round;stroke-miterlimit:10;" d="
				M239.11,139.72c1.577,0,3.155,0,4.732,0"/>
			<path style="fill:none;stroke:#060305;stroke-width:0.8;stroke-linecap:round;stroke-linejoin:round;stroke-miterlimit:10;" d="
				M256.273,138.254c0.258,1.453,0.515,2.907,0.773,4.361"/>
			<path style="fill:none;stroke:#060305;stroke-width:0.8;stroke-linecap:round;stroke-linejoin:round;stroke-miterlimit:10;" d="
				M231.465,153.917c-0.607,0.971-1.214,1.941-1.82,2.912"/>
			<path style="fill:none;stroke:#060305;stroke-width:0.8;stroke-linecap:round;stroke-linejoin:round;stroke-miterlimit:10;" d="
				M246.755,158.286c2.184,0.121,4.368,0.243,6.553,0.364"/>
			<path style="fill:none;stroke:#060305;stroke-width:0.8;stroke-linecap:round;stroke-linejoin:round;stroke-miterlimit:10;" d="
				M216.947,164.452c0.62,1.207,1.239,2.414,1.859,3.62"/>
			<path style="fill:none;stroke:#060305;stroke-width:0.8;stroke-linecap:round;stroke-linejoin:round;stroke-miterlimit:10;" d="
				M236.884,167.445c0.847,0.61,1.695,1.219,2.542,1.829"/>
			<path style="fill:none;stroke:#060305;stroke-width:0.8;stroke-linecap:round;stroke-linejoin:round;stroke-miterlimit:10;" d="
				M252.651,118.949c0.49,1.697,0.98,3.395,1.47,5.093"/>
			<path style="fill:none;stroke:#060305;stroke-width:0.8;stroke-linecap:round;stroke-linejoin:round;stroke-miterlimit:10;" d="
				M215.207,146.966c0.372,1.333,0.744,2.665,1.116,3.998"/>
			<path style="fill:none;stroke:#060305;stroke-width:0.8;stroke-linecap:round;stroke-linejoin:round;stroke-miterlimit:10;" d="
				M215.084,129.891c0.971-0.728,1.942-1.456,2.912-2.184"/>
		</g>
		<g>
			<path style="fill:#814EFF;" d="M284.121,183.619c2.923-4.665,6.335-8.876,9.257-13.541c5.887,6.312,11.357,12.184,17.244,18.496
				c2.324-11.056,4.648-22.113,6.973-33.169c0.983-4.674,1.971-9.422,1.634-14.187c-0.393-5.56-2.646-10.971-6.316-15.167
				c-3.669-4.195-9.044-6.823-14.265-8.774c-14.294-5.34-29.05-9.441-44.049-12.242c0,0,7.507,41.714,11.968,64.486
				c1.758,8.974,5.634,17.976,11.485,25.004c5.85,7.028,13.385,12.509,21.418,16.878c7.307,3.974,14.865,6.842,22.588,9.93
				C310.538,207.671,297.904,195,284.121,183.619z"/>
			<path style="fill:none;stroke:#060305;stroke-width:0.8;stroke-linecap:round;stroke-linejoin:round;stroke-miterlimit:10;" d="
				M277.006,153.944c5.303-7.186,10.607-14.372,15.91-21.557"/>
		</g>
		<g>
			<path style="fill:#060305;" d="M316.526,217.428c-6.861-5.026-16.744-12.711-23.154-18.492
				c-4.505-4.063-18.369-5.343-18.369-5.343s0.692-12.127-3.145-15.632l-89.939,14.574c1.257,32.038,1.768,64.993,5.064,96.885
				c2.732,26.434,6.438,53.779,9.17,80.212c16.988-0.11,33.628,0.265,50.616,0.156c-2.273-27.447-9.358-54.018-8.2-81.535
				c0.833-19.78,1.666-39.56,2.498-59.34c13.434,8.972,25.999,17.396,39.433,26.368c-1.034,20.383-1.378,40.249-2.413,60.632
				c16.38-0.242,32.732-0.553,49.112-0.795c2.448-17.835,4.303-35.273,6.752-53.107
				C336.311,244.822,330.523,227.682,316.526,217.428z"/>
			<path style="fill:none;stroke:#FFFFFF;stroke-width:0.8;stroke-linecap:round;stroke-linejoin:round;stroke-miterlimit:10;" d="
				M241.148,223.995c-0.052,2.245-0.103,4.49-0.155,6.735"/>
			<path style="fill:none;stroke:#FFFFFF;stroke-width:0.8;stroke-linecap:round;stroke-linejoin:round;stroke-miterlimit:10;" d="
				M279.524,254.544c2.427,0.546,4.854,1.092,7.281,1.639"/>
			<path style="fill:none;stroke:#FFFFFF;stroke-width:0.8;stroke-linecap:round;stroke-linejoin:round;stroke-miterlimit:10;" d="
				M195.807,358.768c16.132-1.075,32.264-2.15,48.396-3.224"/>
			<path style="fill:none;stroke:#060305;stroke-width:0.8;stroke-linecap:round;stroke-linejoin:round;stroke-miterlimit:10;" d="
				M279.16,301.631c15.17,1.06,30.341,2.119,45.511,3.178"/>
			<path style="fill:none;stroke:#FFFFFF;stroke-width:0.8;stroke-linecap:round;stroke-linejoin:round;stroke-miterlimit:10;" d="
				M240.052,355.483c-1.239-14.97-2.479-29.941-3.718-44.911c-1.002-12.103,0.687-24.997,1.24-37.128"/>
			<path style="fill:none;stroke:#FFFFFF;stroke-width:0.8;stroke-linecap:round;stroke-linejoin:round;stroke-miterlimit:10;" d="
				M286.114,301.595c0.164-13.509,0.328-27.018,0.492-40.526c1.478,0.917,3.671-0.903,4.295-2.527
				c0.624-1.624,0.015-3.514-1.09-4.857c-1.106-1.343-2.639-2.25-4.14-3.13c-14.639-8.581-29.279-17.161-43.918-25.742"/>
		</g>
		<g>
			<path style="fill:#814EFF;" d="M212.856,103.721c-6.607,2.023-13.214,4.047-19.82,6.07c-13.268,4.064-26.65,9.112-38.795,15.824
				c-5.274,2.914-9.276,7.842-11.219,13.545c-1.943,5.704-1.945,11.925-0.937,17.865c1.008,5.941,2.99,11.666,4.963,17.359
				c2.114,6.099,4.227,12.198,6.341,18.298c11.541-11.998,22.777-23.563,34.318-35.561l-34.189,180.355l52.441-57.969
				L212.856,103.721z"/>
			<path style="fill:none;stroke:#060305;stroke-width:0.8;stroke-linecap:round;stroke-linejoin:round;stroke-miterlimit:10;" d="
				M190.856,144.118c1.008,6.851,2.015,13.701,3.023,20.552"/>
			<path style="fill:none;stroke:#060305;stroke-width:0.8;stroke-linecap:round;stroke-linejoin:round;stroke-miterlimit:10;" d="
				M169.319,136.334c6.262,5.935,12.525,11.871,18.787,17.806"/>
			<path style="fill:none;stroke:#060305;stroke-width:0.8;stroke-linecap:round;stroke-linejoin:round;stroke-miterlimit:10;" d="
				M205.583,106.945c1.029,29.428,2.059,58.857,3.088,88.285"/>
		</g>
		<g>
			<path style="fill:#C14F4F;" d="M292.691,183.073c-0.558-0.222-1.186-0.116-1.777-0.007c-1.378,0.255-2.757,0.509-4.136,0.764
				c3.388-4.141,6.529-8.221,9.917-12.362l-19.024-16.961c-3.207,5.261-5.713,10.949-7.433,16.866
				c-0.597,2.054-1.211,4.06-0.932,6.181c0.28,2.121,1.235,4.148,2.692,5.714c3.064,3.294,7.851,5.118,11.621,7.572
				c3.236-2.023,6.596-4.235,9.832-6.257C293.961,184.266,293.25,183.296,292.691,183.073z"/>
			<path style="fill:none;stroke:#060305;stroke-width:0.8;stroke-linecap:round;stroke-linejoin:round;stroke-miterlimit:10;" d="
				M287.19,183.426c-0.791,0.969-1.582,1.938-2.373,2.907"/>
		</g>
		<g>
			<path style="fill:#C14F4F;" d="M187.803,154.868L168.2,175.583c0.746,0.5,1.491,0.999,2.237,1.499
				c2.377,5.725,5.399,10.898,9.355,15.67c-1.374,0.33-2.534,0.615-3.908,0.945c-0.975,0.234-1.737,1.337-1.525,2.316
				c4.333,0.736,8.49,1.649,12.824,2.385c5.343-3.091,9.968-6.898,13.8-11.738C200.48,174.994,195.71,163.462,187.803,154.868z"/>
			<path style="fill:none;stroke:#060305;stroke-width:0.8;stroke-linecap:round;stroke-linejoin:round;stroke-miterlimit:10;" d="
				M179.393,192.339c0.968,0.913,1.935,1.827,2.903,2.74"/>
		</g>
		<g>
			<path style="fill:#814EFF;" d="M272.969,137.295c-0.004,0.726,0.954,39.318,0.954,39.318l3.919,13.786l17.416,8.849
				l-22.289-0.675l-5.718-25.983L272.969,137.295z"/>
			<path style="fill:none;stroke:#060305;stroke-width:0.8;stroke-linecap:round;stroke-linejoin:round;stroke-miterlimit:10;" d="
				M273.074,137.178c0.197,8.069,0.394,16.138,0.591,24.207"/>
			<path style="fill:none;stroke:#060305;stroke-width:0.8;stroke-linecap:round;stroke-linejoin:round;stroke-miterlimit:10;" d="
				M260.451,107.188c4.572,29.553,9.145,59.107,13.717,88.66"/>
			<path style="fill:none;stroke:#060305;stroke-width:0.8;stroke-linecap:round;stroke-linejoin:round;stroke-miterlimit:10;" d="
				M276.728,186.483c5.064,3.147,10.127,6.294,15.191,9.441"/>
		</g>
		<g>
			<g>
				<path style="fill:none;stroke:#060305;stroke-width:0.8;stroke-linecap:round;stroke-linejoin:round;stroke-miterlimit:10;" d="
					M230.959,70.883c2.906-0.152,5.812-0.305,8.719-0.457c1.51-0.079,3.045-0.156,4.514,0.201c1.469,0.358,2.889,1.219,3.557,2.575"
					/>
				<path style="fill:none;stroke:#060305;stroke-width:0.8;stroke-linecap:round;stroke-linejoin:round;stroke-miterlimit:10;" d="
					M215.731,79.697c-3.718,3.529-5.671,8.833-5.129,13.93"/>
				<path style="fill:#060305;" d="M246.413,73.256c-1.33-1.783-3.763-2.274-5.978-2.479c-3.042-0.282-6.003-0.072-9.054,0.084
					c-6.538,0.334-12.81,4.051-16.243,9.625c-1.53,2.485-2.679,5.128-3.233,7.993c-0.554,2.865-0.17,6.055,1.697,8.299
					c2.16,2.597,6.205,3.393,9.187,1.808l15.251-11.338c1.977,0.865,4.495,0.261,5.865-1.407c1.37-1.668,1.72-4.129,0.487-5.9
					c1.274-0.455,2.305-1.538,2.697-2.833C247.48,75.814,247.222,74.34,246.413,73.256z"/>
			</g>
			<g>
				<path style="fill:#C14F4F;" d="M235.938,104.163c-0.087-1.213-0.154-2.409-0.242-3.622c3.26-1.121,5.714-4.394,5.71-7.842
					c-0.002-2.119-0.179-4.367-0.632-6.437c-0.517-2.363-2.054-4.429-4.09-5.734c-4.047,0.298-8.151,0.755-12.197,1.053
					c-0.538,2.126-1.176,4.218-1.714,6.343c-0.665-0.59-1.392-1.201-2.056-1.791c-1.881-0.162-3.814,0.833-4.776,2.457
					c-0.962,1.624-0.906,3.797,0.14,5.369c1.046,1.572,3.028,2.464,4.898,2.205c0.04,2.508,0.035,5.07,0.076,7.577
					c1.735,2.253,4.801,3.733,7.644,3.79C231.541,107.587,234.116,106.345,235.938,104.163z"/>
				<circle style="fill:#060305;" cx="238.109" cy="88.306" r="0.8"/>
				<circle style="fill:#060305;" cx="227.956" cy="88.95" r="0.8"/>
				<path style="fill:none;stroke:#060305;stroke-width:0.8;stroke-linecap:round;stroke-linejoin:round;stroke-miterlimit:10;" d="
					M226.235,85.046c0.332-0.492,0.891-0.823,1.481-0.878c0.59-0.055,1.201,0.168,1.617,0.591"/>
				<path style="fill:none;stroke:#060305;stroke-width:0.8;stroke-linecap:round;stroke-linejoin:round;stroke-miterlimit:10;" d="
					M233.466,88.027c0.212,1.034,0.424,2.067,0.636,3.101c-0.324,0-0.857,0.236-1.181,0.236"/>
				<path style="fill:none;stroke:#060305;stroke-width:0.8;stroke-linecap:round;stroke-linejoin:round;stroke-miterlimit:10;" d="
					M235.954,82.86c0.646-0.086,1.293-0.172,1.939-0.259"/>
				<path style="fill:none;stroke:#060305;stroke-width:0.8;stroke-linecap:round;stroke-linejoin:round;stroke-miterlimit:10;" d="
					M218.316,89.131c0.8,0.27,1.6,0.539,2.4,0.809"/>
				<path style="fill:none;stroke:#060305;stroke-width:0.8;stroke-linecap:round;stroke-linejoin:round;stroke-miterlimit:10;" d="
					M220.789,96.255c0.345,0.031,0.689,0.062,1.034,0.094"/>
				<path style="fill:none;stroke:#060305;stroke-width:0.8;stroke-linecap:round;stroke-linejoin:round;stroke-miterlimit:10;" d="
					M225.886,99.673c3.058,1.94,7.049,2.325,10.421,1.005"/>
				<path style="fill:none;stroke:#060305;stroke-width:0.8;stroke-linecap:round;stroke-linejoin:round;stroke-miterlimit:10;" d="
					M229.827,92.031c-0.005,0.446,0.264,0.884,0.664,1.081c0.4,0.197,0.911,0.144,1.262-0.131"/>
			</g>
			<g>
				<polygon style="fill:#814EFF;" points="242.527,52.004 211.286,67.259 201.395,83.676 213.425,77.554 216.779,81.576 
					232.153,73.273 231.135,68.541 235.66,66.238 				"/>
				
					<line style="fill:none;stroke:#060305;stroke-width:0.8;stroke-linecap:round;stroke-linejoin:round;stroke-miterlimit:10;" x1="213.425" y1="77.554" x2="231.135" y2="68.541"/>
				
					<line style="fill:none;stroke:#060305;stroke-width:0.8;stroke-linecap:round;stroke-linejoin:round;stroke-miterlimit:10;" x1="201.395" y1="83.676" x2="201.395" y2="95.706"/>
				
					<polyline style="fill:none;stroke:#060305;stroke-width:0.8;stroke-linecap:round;stroke-linejoin:round;stroke-miterlimit:10;" points="
					200.029,98.971 201.395,95.706 202.5,98.971 				"/>
			</g>
		</g>
	</g>
</g>
</svg>
