<svg width="200" height="200" viewBox="0 0 200 200" xmlns="http://www.w3.org/2000/svg">
  <!-- Background circle for head -->
  <circle cx="100" cy="80" r="35" fill="#fed7aa" stroke="#fb923c" stroke-width="2"/>
  
  <!-- Hair -->
  <ellipse cx="100" cy="60" rx="25" ry="15" fill="#1f2937"/>
  
  <!-- Eyes -->
  <circle cx="90" cy="75" r="3" fill="#1f2937"/>
  <circle cx="110" cy="75" r="3" fill="#1f2937"/>
  
  <!-- Smile -->
  <path d="M 85 90 Q 100 100 115 90" stroke="#1f2937" stroke-width="3" fill="none"/>
  
  <!-- Body (T-shirt) -->
  <rect x="80" y="115" width="40" height="50" rx="5" fill="#374151"/>
  
  <!-- Left arm raised -->
  <ellipse cx="60" cy="130" rx="8" ry="25" fill="#fed7aa" transform="rotate(-30 60 130)"/>
  <!-- Left hand -->
  <circle cx="50" cy="150" r="6" fill="#fed7aa"/>
  
  <!-- Right arm raised -->
  <ellipse cx="140" cy="130" rx="8" ry="25" fill="#fed7aa" transform="rotate(30 140 130)"/>
  <!-- Right hand -->
  <circle cx="150" cy="150" r="6" fill="#fed7aa"/>
  
  <!-- Fingers spread gesture -->
  <g transform="translate(50, 150)">
    <line x1="0" y1="0" x2="-8" y2="-8" stroke="#1f2937" stroke-width="2"/>
    <line x1="0" y1="0" x2="-6" y2="-12" stroke="#1f2937" stroke-width="2"/>
    <line x1="0" y1="0" x2="-4" y2="-10" stroke="#1f2937" stroke-width="2"/>
    <line x1="0" y1="0" x2="-2" y2="-8" stroke="#1f2937" stroke-width="2"/>
  </g>
  
  <g transform="translate(150, 150)">
    <line x1="0" y1="0" x2="8" y2="-8" stroke="#1f2937" stroke-width="2"/>
    <line x1="0" y1="0" x2="6" y2="-12" stroke="#1f2937" stroke-width="2"/>
    <line x1="0" y1="0" x2="4" y2="-10" stroke="#1f2937" stroke-width="2"/>
    <line x1="0" y1="0" x2="2" y2="-8" stroke="#1f2937" stroke-width="2"/>
  </g>
</svg>
