<svg width="596" height="548" viewBox="0 0 596 548" fill="none" xmlns="http://www.w3.org/2000/svg">
<path d="M595.929 267.961C595.961 269.3 595.982 270.64 595.992 271.984L595.492 271.987C595.497 272.658 595.5 273.329 595.5 274C595.5 274.672 595.497 275.342 595.492 276.013L595.992 276.017C595.982 277.36 595.961 278.701 595.929 280.039L595.429 280.027C595.398 281.363 595.356 282.697 595.304 284.028L595.803 284.047C595.751 285.381 595.688 286.712 595.615 288.041L595.116 288.014C595.043 289.353 594.959 290.69 594.864 292.025L595.363 292.06C595.268 293.397 595.163 294.732 595.048 296.064L594.55 296.02C594.435 297.35 594.309 298.676 594.173 300L594.671 300.051C594.534 301.383 594.387 302.713 594.23 304.039L593.733 303.981C593.575 305.31 593.407 306.637 593.229 307.961L593.725 308.028C593.546 309.354 593.357 310.678 593.158 311.998L592.663 311.923C592.464 313.242 592.255 314.557 592.036 315.87L592.529 315.952C592.308 317.276 592.076 318.596 591.834 319.914L591.343 319.824C591.101 321.138 590.85 322.45 590.588 323.758L591.079 323.857C590.817 325.167 590.544 326.475 590.262 327.78L589.773 327.674C589.491 328.98 589.198 330.283 588.895 331.583L589.382 331.697C589.077 333.002 588.763 334.303 588.439 335.601L587.954 335.48C587.63 336.775 587.296 338.067 586.953 339.356L587.436 339.484C587.091 340.777 586.737 342.065 586.372 343.35L585.891 343.214C585.526 344.5 585.151 345.783 584.766 347.063L585.245 347.207C584.86 348.488 584.464 349.766 584.059 351.04L583.583 350.889C583.178 352.161 582.764 353.428 582.34 354.692L582.814 354.851C582.388 356.121 581.953 357.387 581.507 358.648L581.036 358.482C580.591 359.742 580.137 360.998 579.673 362.25L580.142 362.423C579.677 363.678 579.202 364.928 578.718 366.174L578.252 365.993C577.769 367.238 577.276 368.478 576.773 369.715L577.237 369.903C576.733 371.143 576.219 372.379 575.696 373.61L575.236 373.415C574.714 374.644 574.183 375.869 573.642 377.089L574.099 377.292C573.558 378.514 573.007 379.733 572.446 380.947L571.992 380.737C571.433 381.95 570.864 383.159 570.286 384.362L570.736 384.579C570.157 385.785 569.569 386.986 568.971 388.183L568.524 387.96C567.927 389.154 567.322 390.344 566.707 391.529L567.151 391.76C566.536 392.947 565.911 394.13 565.277 395.308L564.837 395.071C564.204 396.247 563.563 397.418 562.913 398.584L563.349 398.828C562.698 399.996 562.038 401.16 561.368 402.319L560.935 402.069C560.268 403.225 559.591 404.376 558.906 405.522L559.335 405.779C558.649 406.927 557.954 408.069 557.251 409.207L556.826 408.944C556.124 410.08 555.413 411.211 554.694 412.336L555.115 412.605C554.395 413.733 553.665 414.855 552.928 415.972L552.511 415.697C551.776 416.81 551.032 417.919 550.28 419.022L550.693 419.303C549.94 420.408 549.179 421.508 548.409 422.602L548 422.315C547.232 423.407 546.455 424.494 545.67 425.576L546.075 425.869C545.29 426.952 544.496 428.028 543.695 429.1L543.294 428.8C542.495 429.869 541.688 430.932 540.872 431.989L541.268 432.294C540.451 433.354 539.627 434.408 538.794 435.456L538.402 435.145C537.572 436.19 536.733 437.23 535.887 438.265L536.273 438.581C535.427 439.615 534.573 440.644 533.712 441.666L533.329 441.344C532.469 442.365 531.601 443.38 530.726 444.389L531.104 444.717C530.227 445.728 529.342 446.733 528.45 447.732L528.077 447.399C527.189 448.394 526.293 449.383 525.39 450.367L525.758 450.705C524.854 451.689 523.942 452.668 523.023 453.64L522.66 453.297C521.742 454.267 520.818 455.232 519.886 456.19L520.244 456.539C519.312 457.498 518.372 458.451 517.426 459.397L517.072 459.044C516.129 459.987 515.179 460.924 514.222 461.854L514.571 462.213C513.612 463.145 512.646 464.071 511.673 464.991L511.33 464.628C510.359 465.546 509.381 466.458 508.396 467.364L508.734 467.732C507.752 468.636 506.762 469.533 505.766 470.424L505.432 470.052C504.438 470.941 503.436 471.824 502.428 472.701L502.757 473.078C501.747 473.957 500.731 474.829 499.708 475.694L499.385 475.312C498.366 476.174 497.341 477.029 496.309 477.878L496.626 478.264C495.595 479.113 494.557 479.955 493.512 480.79L493.2 480.4C492.157 481.234 491.108 482.062 490.053 482.883L490.36 483.277C489.304 484.099 488.241 484.914 487.172 485.723L486.87 485.324C485.807 486.128 484.738 486.925 483.663 487.715L483.959 488.118C482.882 488.91 481.799 489.695 480.71 490.473L480.42 490.066C479.332 490.843 478.239 491.613 477.14 492.376L477.425 492.787C476.328 493.549 475.224 494.304 474.115 495.053L473.836 494.638C472.73 495.384 471.619 496.123 470.502 496.855L470.776 497.273C469.658 498.006 468.533 498.733 467.403 499.452L467.134 499.03C466.007 499.747 464.874 500.458 463.736 501.161L463.999 501.587C462.863 502.288 461.723 502.983 460.576 503.67L460.319 503.241C459.175 503.927 458.025 504.607 456.87 505.279L457.121 505.711C455.964 506.384 454.802 507.05 453.634 507.709L453.388 507.273C452.227 507.929 451.06 508.577 449.888 509.218L450.128 509.656C448.957 510.297 447.78 510.931 446.598 511.557L446.364 511.115C445.184 511.741 443.999 512.359 442.809 512.97L443.037 513.414C441.846 514.026 440.65 514.63 439.449 515.226L439.227 514.778C438.034 515.371 436.837 515.956 435.634 516.534L435.851 516.985C434.646 517.564 433.437 518.135 432.223 518.699L432.012 518.246C430.8 518.809 429.583 519.365 428.362 519.913L428.566 520.369C427.348 520.916 426.125 521.456 424.897 521.988L424.698 521.529C423.475 522.059 422.248 522.582 421.016 523.097L421.209 523.558C419.975 524.074 418.736 524.582 417.493 525.083L417.307 524.619C416.066 525.119 414.822 525.611 413.572 526.095L413.753 526.562C412.51 527.044 411.263 527.518 410.011 527.986L409.837 527.517C408.587 527.983 407.333 528.442 406.075 528.893L406.244 529.364C404.984 529.816 403.72 530.26 402.452 530.696L402.289 530.224C401.028 530.658 399.762 531.085 398.492 531.503L398.649 531.978C397.382 532.396 396.111 532.806 394.836 533.209L394.685 532.732C393.413 533.134 392.136 533.528 390.855 533.915L391 534.393C389.717 534.78 388.431 535.16 387.141 535.531L387.002 535.05C385.723 535.419 384.44 535.779 383.153 536.132L383.285 536.614C381.998 536.967 380.707 537.312 379.412 537.65L379.286 537.166C377.993 537.503 376.697 537.832 375.397 538.153L375.517 538.638C374.218 538.959 372.915 539.272 371.609 539.577L371.495 539.09C370.199 539.393 368.9 539.688 367.598 539.975L367.705 540.463C366.401 540.751 365.093 541.03 363.782 541.302L363.68 540.812C362.371 541.084 361.059 541.347 359.743 541.602L359.838 542.093C358.527 542.347 357.213 542.594 355.895 542.832L355.806 542.34C354.496 542.578 353.183 542.807 351.867 543.028L351.95 543.521C350.632 543.743 349.31 543.957 347.986 544.162L347.909 543.668C346.587 543.873 345.262 544.071 343.934 544.26L344.004 544.755C342.685 544.943 341.363 545.123 340.038 545.295L339.973 544.799C338.652 544.971 337.329 545.134 336.002 545.29L336.06 545.786C334.732 545.942 333.4 546.09 332.066 546.229L332.014 545.732C330.684 545.871 329.351 546.002 328.015 546.125L328.061 546.623C326.735 546.745 325.407 546.859 324.077 546.965L324.037 546.467C322.708 546.573 321.377 546.671 320.044 546.761L320.077 547.259C318.742 547.349 317.404 547.431 316.063 547.505L316.036 547.006C314.702 547.079 313.366 547.144 312.028 547.201L312.049 547.701C310.719 547.758 309.387 547.806 308.052 547.847L308.037 547.347C306.704 547.388 305.369 547.42 304.032 547.445L304.041 547.945C302.702 547.969 301.36 547.986 300.017 547.994L300.014 547.494C299.343 547.498 298.672 547.5 298 547.5C297.761 547.5 297.522 547.5 297.283 547.499C296.85 547.498 296.418 547.496 295.986 547.494L295.983 547.994C294.639 547.986 293.298 547.969 291.959 547.945L291.968 547.445C290.631 547.42 289.296 547.388 287.963 547.347L287.948 547.847C286.613 547.806 285.281 547.758 283.95 547.701L283.972 547.201C282.633 547.144 281.297 547.079 279.964 547.006L279.936 547.505C278.596 547.431 277.258 547.349 275.922 547.259L275.956 546.761C274.623 546.671 273.291 546.573 271.963 546.467L271.923 546.965C270.593 546.859 269.265 546.745 267.939 546.623L267.985 546.125C266.649 546.002 265.316 545.871 263.985 545.732L263.933 546.229C262.599 546.09 261.268 545.942 259.939 545.786L259.998 545.29C258.671 545.134 257.347 544.971 256.026 544.799L255.962 545.295C254.637 545.123 253.315 544.943 251.995 544.755L252.066 544.26C250.738 544.071 249.413 543.873 248.09 543.668L248.014 544.162C246.689 543.956 245.368 543.743 244.05 543.521L244.133 543.028C242.817 542.807 241.504 542.578 240.193 542.34L240.104 542.832C238.787 542.594 237.473 542.347 236.161 542.093L236.257 541.602C234.941 541.347 233.629 541.084 232.32 540.812L232.218 541.302C230.907 541.03 229.599 540.751 228.295 540.463L228.402 539.975C227.1 539.688 225.801 539.393 224.505 539.09L224.391 539.577C223.085 539.272 221.782 538.959 220.482 538.638L220.602 538.153C219.303 537.832 218.006 537.503 216.714 537.166L216.588 537.65C215.293 537.312 214.002 536.967 212.715 536.614L212.847 536.132C211.56 535.779 210.277 535.419 208.997 535.05L208.859 535.531C207.569 535.16 206.283 534.78 205 534.393L205.144 533.915C203.864 533.528 202.587 533.134 201.314 532.732L201.164 533.209C199.889 532.806 198.618 532.396 197.351 531.978L197.508 531.503C196.238 531.084 194.972 530.658 193.711 530.224L193.548 530.696C192.28 530.26 191.016 529.816 189.756 529.364L189.924 528.893C188.667 528.442 187.413 527.983 186.163 527.517L185.988 527.986C184.737 527.518 183.49 527.044 182.247 526.562L182.427 526.095C181.178 525.611 179.934 525.119 178.693 524.619L178.507 525.083C177.264 524.582 176.025 524.074 174.791 523.558L174.984 523.096C173.752 522.581 172.525 522.059 171.302 521.529L171.103 521.988C169.875 521.456 168.652 520.916 167.434 520.369L167.638 519.913C166.417 519.365 165.2 518.809 163.988 518.246L163.777 518.699C162.563 518.135 161.354 517.563 160.149 516.985L160.366 516.534C159.163 515.956 157.966 515.371 156.773 514.778L156.55 515.226C155.35 514.629 154.154 514.026 152.963 513.414L153.191 512.97C152.001 512.359 150.816 511.741 149.636 511.115L149.402 511.557C148.22 510.931 147.043 510.297 145.872 509.656L146.112 509.218C144.94 508.577 143.773 507.929 142.612 507.273L142.366 507.709C141.198 507.05 140.036 506.384 138.879 505.711L139.13 505.279C137.975 504.606 136.825 503.927 135.681 503.241L135.423 503.67C134.277 502.982 133.136 502.288 132.001 501.587L132.264 501.161C131.126 500.458 129.993 499.747 128.865 499.03L128.597 499.452C127.467 498.733 126.342 498.006 125.224 497.273L125.498 496.855C124.381 496.123 123.27 495.384 122.164 494.638L121.885 495.053C120.775 494.304 119.672 493.549 118.575 492.787L118.86 492.376C117.761 491.613 116.668 490.843 115.58 490.066L115.29 490.473C114.201 489.695 113.118 488.91 112.041 488.118L112.337 487.715C111.262 486.925 110.193 486.128 109.13 485.324L108.828 485.723C107.759 484.914 106.696 484.099 105.64 483.277L105.947 482.882C104.892 482.062 103.842 481.234 102.8 480.4L102.487 480.79C101.443 479.955 100.405 479.113 99.3734 478.264L99.6911 477.878C98.6593 477.029 97.634 476.174 96.6153 475.312L96.2924 475.694C95.2694 474.828 94.253 473.957 93.2433 473.078L93.5714 472.701C92.5634 471.824 91.5621 470.941 90.5675 470.052L90.2342 470.424C89.2379 469.533 88.2484 468.636 87.2656 467.732L87.6041 467.364C86.6192 466.458 85.6411 465.546 84.67 464.628L84.3265 464.991C83.3537 464.071 82.3879 463.145 81.4291 462.213L81.7777 461.854C80.8206 460.924 79.8706 459.987 78.9276 459.044L78.5741 459.397C77.6275 458.451 76.688 457.498 75.7558 456.539L76.1143 456.19C75.1824 455.232 74.2577 454.267 73.3403 453.296L72.9769 453.64C72.0579 452.668 71.1462 451.689 70.242 450.705L70.6102 450.367C69.707 449.383 68.8112 448.394 67.9229 447.399L67.55 447.732C66.6578 446.733 65.7732 445.728 64.8962 444.717L65.2739 444.389C64.3985 443.38 63.5307 442.365 62.6706 441.344L62.2882 441.666C61.4265 440.644 60.5726 439.615 59.7264 438.581L60.1133 438.265C59.2669 437.23 58.4282 436.19 57.5975 435.145L57.206 435.456C56.3733 434.407 55.5485 433.354 54.7316 432.294L55.1276 431.989C54.3122 430.932 53.5048 429.869 52.7055 428.8L52.3051 429.1C51.5037 428.028 50.7103 426.952 49.925 425.869L50.3297 425.576C49.5449 424.494 48.7683 423.407 47.9999 422.315L47.591 422.602C46.8212 421.508 46.0597 420.408 45.3065 419.303L45.7196 419.022C44.9678 417.919 44.2243 416.81 43.4892 415.697L43.0719 415.972C42.3344 414.855 41.6054 413.733 40.8848 412.605L41.3062 412.336C40.587 411.21 39.8763 410.08 39.1742 408.944L38.7489 409.207C38.0455 408.069 37.3507 406.926 36.6646 405.779L37.0938 405.522C36.4087 404.376 35.7322 403.225 35.0645 402.068L34.6315 402.318C33.9624 401.16 33.302 399.996 32.6506 398.828L33.0873 398.584C32.437 397.418 31.7956 396.247 31.1631 395.071L30.7228 395.308C30.0891 394.13 29.4644 392.947 28.8487 391.759L29.2926 391.529C28.6781 390.344 28.0726 389.154 27.4762 387.96L27.0289 388.183C26.4314 386.986 25.8429 385.785 25.2637 384.579L25.7144 384.362C25.1363 383.158 24.5673 381.95 24.0076 380.737L23.5536 380.947C22.9933 379.733 22.4423 378.514 21.9006 377.291L22.3578 377.089C21.8172 375.869 21.2859 374.644 20.764 373.415L20.3038 373.61C19.7809 372.379 19.2674 371.143 18.7634 369.903L19.2266 369.714C18.7241 368.478 18.2311 367.237 17.7476 365.993L17.2815 366.174C16.7975 364.928 16.3231 363.677 15.8582 362.423L16.3271 362.249C15.8631 360.998 15.4088 359.742 14.9641 358.482L14.4926 358.648C14.0473 357.386 13.6117 356.121 13.1859 354.851L13.6599 354.692C13.236 353.428 12.8218 352.16 12.4174 350.889L11.9409 351.04C11.5357 349.766 11.1403 348.488 10.7547 347.206L11.2335 347.062C10.8487 345.783 10.4738 344.5 10.1088 343.213L9.6278 343.35C9.2633 342.065 8.9087 340.776 8.56407 339.484L9.04718 339.355C8.70356 338.067 8.36988 336.775 8.0462 335.48L7.56111 335.601C7.23679 334.303 6.9225 333.001 6.61832 331.696L7.10527 331.583C6.80232 330.283 6.50941 328.98 6.22663 327.673L5.73794 327.779C5.45561 326.475 5.18335 325.167 4.92125 323.856L5.41154 323.758C5.14995 322.45 4.89849 321.138 4.65723 319.823L4.16544 319.914C3.9237 318.596 3.69219 317.275 3.47099 315.952L3.96415 315.869C3.74485 314.557 3.5357 313.242 3.33678 311.923L2.84237 311.998C2.64313 310.677 2.45413 309.354 2.27543 308.027L2.77095 307.96C2.59261 306.637 2.42456 305.31 2.26687 303.98L1.77035 304.039C1.61302 302.712 1.46599 301.383 1.32934 300.051L1.82673 300C1.69093 298.676 1.56541 297.349 1.45021 296.02L0.952082 296.063C0.836663 294.731 0.731603 293.397 0.636976 292.06L1.13573 292.024C1.0413 290.69 0.957283 289.353 0.883747 288.013L0.384499 288.041C0.311554 286.712 0.248905 285.381 0.196622 284.047L0.696238 284.028C0.644058 282.696 0.602223 281.363 0.570807 280.027L0.0709457 280.039C0.0394682 278.7 0.0184293 277.36 0.00790082 276.016L0.507885 276.013C0.502631 275.342 0.5 274.671 0.5 274C0.5 273.328 0.502632 272.658 0.507888 271.987L0.00790358 271.983C0.0184339 270.64 0.0394748 269.299 0.0709543 267.961L0.570816 267.973C0.602234 266.637 0.64407 265.303 0.696252 263.972L0.196636 263.953C0.24892 262.619 0.311571 261.288 0.384517 259.959L0.883765 259.986C0.957303 258.647 1.04132 257.31 1.13575 255.975L0.636999 255.94C0.731628 254.603 0.836689 253.268 0.952109 251.936L1.45024 251.98C1.56544 250.65 1.69097 249.324 1.82676 248L1.32937 247.949C1.46603 246.617 1.61306 245.287 1.77039 243.961L2.26691 244.019C2.4246 242.69 2.59265 241.363 2.771 240.039L2.27547 239.972C2.45417 238.646 2.64318 237.322 2.84242 236.002L3.33682 236.077C3.53575 234.758 3.7449 233.443 3.9642 232.13L3.47104 232.048C3.69225 230.724 3.92376 229.404 4.16549 228.086L4.65729 228.176C4.89854 226.862 5.15001 225.55 5.4116 224.242L4.9213 224.144C5.18341 222.833 5.45567 221.525 5.73801 220.22L6.22669 220.326C6.50947 219.02 6.80238 217.717 7.10533 216.417L6.61838 216.303C6.92257 214.998 7.23686 213.697 7.56118 212.399L8.04626 212.52C8.36994 211.225 8.70363 209.933 9.04725 208.644L8.56413 208.516C8.90877 207.223 9.26337 205.935 9.62787 204.65L10.1089 204.786C10.4739 203.5 10.8488 202.217 11.2336 200.937L10.7548 200.793C11.1404 199.512 11.5358 198.234 11.941 196.96L12.4175 197.111C12.8219 195.839 13.2361 194.572 13.66 193.308L13.186 193.149C13.6118 191.879 14.0474 190.613 14.4927 189.352L14.9642 189.518C15.4089 188.258 15.8632 187.002 16.3271 185.75L15.8583 185.577C16.3231 184.322 16.7976 183.072 17.2816 181.826L17.7477 182.007C18.2311 180.762 18.7242 179.522 19.2266 178.285L18.7634 178.097C19.2674 176.857 19.7809 175.621 20.3038 174.39L20.7641 174.585C21.286 173.356 21.8173 172.131 22.3579 170.911L21.9007 170.708C22.4424 169.485 22.9934 168.267 23.5537 167.053L24.0077 167.263C24.5674 166.05 25.1363 164.841 25.7145 163.638L25.2638 163.421C25.843 162.215 26.4314 161.014 27.029 159.817L27.4763 160.04C28.0727 158.846 28.6782 157.656 29.2927 156.471L28.8488 156.24C29.4645 155.053 30.0892 153.87 30.7228 152.692L31.1632 152.929C31.7957 151.753 32.4371 150.582 33.0873 149.416L32.6506 149.172C33.3021 148.004 33.9625 146.84 34.6316 145.681L35.0646 145.931C35.7323 144.775 36.4087 143.624 37.0939 142.478L36.6647 142.221C37.3508 141.073 38.0456 139.931 38.749 138.793L39.1743 139.056C39.8764 137.92 40.5871 136.789 41.3063 135.664L40.8849 135.395C41.6055 134.267 42.3345 133.145 43.072 132.028L43.4893 132.303C44.2244 131.19 44.9679 130.081 45.7197 128.978L45.3066 128.697C46.0598 127.592 46.8213 126.492 47.5911 125.398L48 125.685C48.7684 124.593 49.545 123.506 50.3298 122.424L49.9251 122.131C50.7103 121.048 51.5037 119.972 52.3052 118.9L52.7056 119.2C53.5049 118.131 54.3123 117.068 55.1277 116.011L54.7317 115.706C55.5486 114.646 56.3734 113.592 57.2061 112.544L57.5976 112.855C58.4283 111.81 59.267 110.77 60.1134 109.735L59.7265 109.419C60.5727 108.385 61.4266 107.356 62.2883 106.334L62.6707 106.656C63.5308 105.635 64.3986 104.62 65.274 103.611L64.8963 103.283C65.7733 102.272 66.6579 101.267 67.55 100.268L67.923 100.601C68.8113 99.6056 69.7071 98.6165 70.6103 97.6334L70.2421 97.2951C71.1463 96.3108 72.058 95.3324 72.977 94.36L73.3404 94.7034C74.2578 93.7328 75.1824 92.7681 76.1144 91.8095L75.7559 91.461C76.6881 90.5021 77.6276 89.5493 78.5742 88.6027L78.9277 88.9562C79.8707 88.0132 80.8207 87.0763 81.7778 86.1456L81.4292 85.7871C82.388 84.8548 83.3538 83.9286 84.3266 83.0087L84.6701 83.372C85.6412 82.4537 86.6193 81.5416 87.6042 80.6359L87.2657 80.2679C88.2484 79.3642 89.238 78.4667 90.2343 77.5756L90.5676 77.9483C91.5622 77.0588 92.5635 76.1756 93.5715 75.2989L93.2434 74.9216C94.2531 74.0433 95.2695 73.1715 96.2925 72.3061L96.6154 72.6878C97.6341 71.8261 98.6594 70.9708 99.6912 70.122L99.3735 69.7359C100.405 68.8872 101.443 68.0451 102.488 67.2096L102.8 67.6C103.843 66.7659 104.892 65.9384 105.947 65.1175L105.64 64.7228C106.696 63.901 107.759 63.0858 108.828 62.2773L109.13 62.6761C110.193 61.8724 111.262 61.0753 112.337 60.2849L112.041 59.882C113.118 59.0903 114.201 58.3052 115.29 57.527L115.58 57.9338C116.668 57.1569 117.761 56.3868 118.86 55.6235L118.575 55.2128C119.672 54.4508 120.776 53.6956 121.885 52.9473L122.164 53.3618C123.27 52.616 124.381 51.8771 125.498 51.1451L125.224 50.7269C126.342 49.9937 127.467 49.2674 128.597 48.5481L128.866 48.9699C129.993 48.2525 131.126 47.5421 132.264 46.8387L132.001 46.4134C133.137 45.7119 134.277 45.0175 135.424 44.3301L135.681 44.7589C136.825 44.0727 137.975 43.3935 139.13 42.7214L138.879 42.2892C140.036 41.616 141.198 40.9499 142.366 40.291L142.612 40.7265C143.773 40.0713 144.94 39.4232 146.112 38.7823L145.872 38.3436C147.043 37.7028 148.22 37.0692 149.402 36.4429L149.636 36.8847C150.816 36.2593 152.001 35.6412 153.191 35.0304L152.963 34.5855C154.154 33.9744 155.35 33.3704 156.551 32.7739L156.773 33.2217C157.966 32.6292 159.163 32.0439 160.366 31.466L160.149 31.0153C161.354 30.4364 162.563 29.8649 163.777 29.3008L163.988 29.7542C165.2 29.191 166.417 28.6353 167.638 28.0869L167.434 27.6308C168.652 27.0838 169.875 26.5442 171.103 26.0121L171.302 26.4709C172.525 25.941 173.752 25.4185 174.984 24.9035L174.791 24.4422C176.025 23.9263 177.264 23.418 178.507 22.9172L178.693 23.381C179.934 22.8813 181.178 22.3891 182.428 21.9045L182.247 21.4384C183.49 20.9562 184.737 20.4815 185.989 20.0144L186.163 20.4828C187.413 20.0165 188.667 19.5578 189.925 19.1066L189.756 18.636C191.016 18.1842 192.28 17.74 193.548 17.3035L193.711 17.7763C194.972 17.3421 196.238 16.9155 197.508 16.4966L197.351 16.0218C198.618 15.6038 199.889 15.1936 201.164 14.791L201.315 15.2678C202.587 14.8659 203.864 14.4718 205.145 14.0854L205 13.6067C206.283 13.2196 207.569 12.8404 208.859 12.469L208.998 12.9495C210.277 12.5812 211.56 12.2207 212.847 11.8679L212.715 11.3857C214.002 11.0327 215.293 10.6876 216.588 10.3503L216.714 10.8341C218.007 10.4973 219.303 10.1684 220.603 9.84729L220.483 9.36188C221.782 9.0409 223.085 8.7278 224.391 8.42264L224.505 8.90953C225.801 8.60683 227.1 8.31195 228.402 8.02494L228.295 7.53665C229.599 7.2492 230.907 6.96963 232.218 6.698L232.32 7.18761C233.629 6.91641 234.941 6.65315 236.257 6.39788L236.162 5.90703C237.473 5.65262 238.787 5.40613 240.105 5.16762L240.194 5.65963C241.504 5.42246 242.817 5.1932 244.133 4.9719L244.05 4.47882C245.368 4.25717 246.69 4.0435 248.014 3.83786L248.091 4.33194C249.413 4.12662 250.738 3.92932 252.066 3.74009L251.996 3.24509C253.315 3.0571 254.637 2.87707 255.962 2.70505L256.027 3.20089C257.348 3.0294 258.671 2.86589 259.998 2.7104L259.94 2.2138C261.268 2.05807 262.6 1.91039 263.934 1.7708L263.986 2.26809C265.316 2.12887 266.649 1.99771 267.985 1.87468L267.939 1.37679C269.265 1.25471 270.593 1.14061 271.923 1.03455L271.963 1.53297C273.292 1.42707 274.623 1.3292 275.956 1.23941L275.923 0.740543C277.258 0.650617 278.596 0.568784 279.937 0.495097L279.964 0.994343C281.298 0.92103 282.634 0.855792 283.972 0.798683L283.951 0.299138C285.281 0.242369 286.613 0.19362 287.948 0.152943L287.963 0.65271C289.296 0.612095 290.631 0.579538 291.968 0.555091L291.959 0.0551751C293.298 0.0306913 294.64 0.0143303 295.983 0.00614337L295.986 0.506134C296.657 0.502047 297.328 0.5 298 0.5C298.672 0.5 299.343 0.502047 300.014 0.506136L300.017 0.00614523C301.361 0.0143333 302.702 0.0306954 304.041 0.0551801L304.032 0.555097C305.369 0.579544 306.704 0.612102 308.037 0.652719L308.052 0.152951C309.387 0.19363 310.719 0.24238 312.05 0.29915L312.028 0.798695C313.367 0.855806 314.703 0.921044 316.036 0.994359L316.064 0.495113C317.404 0.568801 318.742 0.650635 320.078 0.740563L320.044 1.23943C321.377 1.32922 322.709 1.42709 324.037 1.53299L324.077 1.03457C325.407 1.14063 326.735 1.25473 328.061 1.37682L328.015 1.87471C329.351 1.99774 330.684 2.12889 332.015 2.26812L332.067 1.77083C333.401 1.91042 334.732 2.0581 336.061 2.21383L336.002 2.71043C337.329 2.86592 338.653 3.02943 339.974 3.20093L340.038 2.70509C341.363 2.87711 342.685 3.05714 344.005 3.24513L343.934 3.74013C345.262 3.92935 346.587 4.12666 347.91 4.33198L347.986 3.8379C349.311 4.04354 350.632 4.25721 351.95 4.47886L351.867 4.97194C353.183 5.19324 354.496 5.4225 355.807 5.65967L355.896 5.16767C357.213 5.40617 358.527 5.65266 359.839 5.90707L359.743 6.39792C361.059 6.65319 362.371 6.91646 363.68 7.18765L363.782 6.69805C365.093 6.96968 366.401 7.24925 367.705 7.5367L367.598 8.02499C368.9 8.31199 370.199 8.60688 371.495 8.90958L371.609 8.42269C372.915 8.72785 374.218 9.04095 375.518 9.36193L375.398 9.84734C376.697 10.1684 377.994 10.4974 379.286 10.8341L379.412 10.3503C380.707 10.6876 381.998 11.0328 383.285 11.3857L383.153 11.8679C384.44 12.2207 385.723 12.5813 387.003 12.9496L387.141 12.4691C388.431 12.8405 389.717 13.2197 391 13.6067L390.856 14.0854C392.136 14.4718 393.413 14.866 394.686 15.2679L394.836 14.7911C396.111 15.1936 397.382 15.6039 398.649 16.0218L398.492 16.4966C399.762 16.9155 401.028 17.3421 402.289 17.7763L402.452 17.3036C403.72 17.74 404.984 18.1842 406.244 18.636L406.076 19.1067C407.333 19.5578 408.587 20.0166 409.837 20.4829L410.012 20.0144C411.263 20.4815 412.51 20.9562 413.753 21.4384L413.573 21.9046C414.822 22.3891 416.066 22.8813 417.307 23.381L417.493 22.9173C418.736 23.418 419.975 23.9264 421.209 24.4422L421.016 24.9035C422.248 25.4185 423.475 25.941 424.698 26.471L424.897 26.0122C426.125 26.5443 427.348 27.0838 428.566 27.6308L428.362 28.087C429.583 28.6353 430.8 29.1911 432.012 29.7543L432.223 29.3009C433.437 29.865 434.646 30.4365 435.851 31.0154L435.634 31.466C436.837 32.0439 438.034 32.6292 439.227 33.2218L439.45 32.774C440.65 33.3705 441.846 33.9744 443.037 34.5856L442.809 35.0304C443.999 35.6413 445.184 36.2594 446.364 36.8847L446.598 36.4429C447.78 37.0693 448.957 37.7029 450.128 38.3437L449.888 38.7824C451.06 39.4233 452.227 40.0714 453.388 40.7266L453.634 40.2911C454.802 40.95 455.964 41.6161 457.121 42.2893L456.87 42.7214C458.025 43.3935 459.175 44.0727 460.319 44.759L460.577 44.3302C461.723 45.0176 462.864 45.712 463.999 46.4134L463.736 46.8388C464.874 47.5422 466.007 48.2526 467.135 48.97L467.403 48.5482C468.533 49.2675 469.658 49.9937 470.776 50.727L470.502 51.1452C471.619 51.8772 472.73 52.6161 473.836 53.3618L474.115 52.9474C475.225 53.6957 476.328 54.4509 477.425 55.2129L477.14 55.6236C478.239 56.3869 479.332 57.157 480.42 57.9339L480.71 57.5271C481.799 58.3053 482.882 59.0903 483.959 59.8821L483.663 60.2849C484.738 61.0753 485.807 61.8724 486.87 62.6762L487.172 62.2774C488.241 63.0859 489.304 63.9011 490.36 64.7229L490.053 65.1176C491.108 65.9385 492.158 66.766 493.2 67.6001L493.513 67.2097C494.557 68.0452 495.595 68.8873 496.627 69.736L496.309 70.1221C497.341 70.9709 498.366 71.8262 499.385 72.6879L499.708 72.3062C500.731 73.1715 501.747 74.0434 502.757 74.9217L502.429 75.2989C503.437 76.1757 504.438 77.0589 505.432 77.9484L505.766 77.5757C506.762 78.4668 507.752 79.3642 508.734 80.268L508.396 80.636C509.381 81.5417 510.359 82.4538 511.33 83.3721L511.673 83.0088C512.646 83.9287 513.612 84.8549 514.571 85.7872L514.222 86.1457C515.179 87.0764 516.129 88.0133 517.072 88.9563L517.426 88.6028C518.372 89.5494 519.312 90.5022 520.244 91.4611L519.886 91.8096C520.818 92.7682 521.742 93.7329 522.66 94.7035L523.023 94.3601C523.942 95.3325 524.854 96.3109 525.758 97.2952L525.39 97.6335C526.293 98.6166 527.189 99.6057 528.077 100.601L528.45 100.268C529.342 101.267 530.227 102.272 531.104 103.283L530.726 103.611C531.602 104.62 532.469 105.635 533.329 106.656L533.712 106.334C534.573 107.356 535.427 108.385 536.274 109.419L535.887 109.735C536.733 110.77 537.572 111.81 538.403 112.855L538.794 112.544C539.627 113.593 540.452 114.646 541.268 115.706L540.872 116.011C541.688 117.068 542.495 118.131 543.294 119.2L543.695 118.9C544.496 119.972 545.29 121.048 546.075 122.131L545.67 122.424C546.455 123.506 547.232 124.593 548 125.685L548.409 125.398C549.179 126.492 549.94 127.592 550.694 128.697L550.28 128.978C551.032 130.081 551.776 131.19 552.511 132.303L552.928 132.028C553.666 133.145 554.395 134.267 555.115 135.395L554.694 135.664C555.413 136.79 556.124 137.92 556.826 139.056L557.251 138.793C557.954 139.931 558.649 141.074 559.335 142.221L558.906 142.478C559.591 143.624 560.268 144.775 560.935 145.932L561.368 145.682C562.038 146.84 562.698 148.004 563.349 149.172L562.913 149.416C563.563 150.582 564.204 151.753 564.837 152.929L565.277 152.692C565.911 153.87 566.536 155.053 567.151 156.241L566.707 156.471C567.322 157.656 567.927 158.846 568.524 160.04L568.971 159.817C569.569 161.014 570.157 162.215 570.736 163.421L570.286 163.638C570.864 164.842 571.433 166.05 571.992 167.263L572.446 167.053C573.007 168.267 573.558 169.486 574.099 170.709L573.642 170.911C574.183 172.131 574.714 173.356 575.236 174.585L575.696 174.39C576.219 175.621 576.733 176.857 577.237 178.097L576.773 178.286C577.276 179.522 577.769 180.763 578.252 182.007L578.719 181.826C579.203 183.072 579.677 184.323 580.142 185.577L579.673 185.751C580.137 187.002 580.591 188.258 581.036 189.518L581.507 189.352C581.953 190.614 582.388 191.879 582.814 193.149L582.34 193.308C582.764 194.572 583.178 195.84 583.583 197.111L584.059 196.96C584.464 198.234 584.86 199.512 585.245 200.794L584.766 200.938C585.151 202.217 585.526 203.5 585.891 204.787L586.372 204.65C586.737 205.935 587.091 207.224 587.436 208.516L586.953 208.645C587.296 209.933 587.63 211.225 587.954 212.52L588.439 212.399C588.763 213.697 589.077 214.999 589.382 216.304L588.895 216.417C589.198 217.717 589.491 219.02 589.773 220.326L590.262 220.221C590.544 221.525 590.817 222.833 591.079 224.144L590.588 224.242C590.85 225.55 591.102 226.862 591.343 228.177L591.835 228.086C592.076 229.404 592.308 230.725 592.529 232.048L592.036 232.131C592.255 233.443 592.464 234.758 592.663 236.077L593.158 236.002C593.357 237.323 593.546 238.646 593.725 239.973L593.229 240.04C593.407 241.363 593.575 242.69 593.733 244.02L594.23 243.961C594.387 245.288 594.534 246.617 594.671 247.949L594.173 248C594.309 249.324 594.435 250.651 594.55 251.98L595.048 251.937C595.163 253.269 595.268 254.603 595.363 255.94L594.864 255.976C594.959 257.31 595.043 258.647 595.116 259.987L595.615 259.959C595.688 261.288 595.751 262.619 595.803 263.953L595.304 263.972C595.356 265.304 595.398 266.637 595.429 267.973L595.929 267.961Z" stroke="white" stroke-dasharray="4 4"/>
</svg>
