<svg width="567" height="420" viewBox="0 0 567 420" fill="none" xmlns="http://www.w3.org/2000/svg">
<g clip-path="url(#clip0_20_169)">
<path fill-rule="evenodd" clip-rule="evenodd" d="M520.7 233.6L531.5 230.1C539.5 227.5 546 221.6 549.5 213.9C553.5 204.9 555.9 201.2 565.2 198C569.7 196.4 564.5 189.2 556.3 188.8C551.9 188.6 548.4 194.4 540.1 196.3C535.4 180.2 534.4 158.2 530.3 146.7C528.9 142.9 521.5 141.3 521 148.5C520.5 155.9 523 161.5 521.5 170C517.8 161.7 518.5 159.8 514.8 149.2C512.3 142.2 504.7 142.4 504.9 152.8C503.9 152.3 502.7 152.1 501.5 152.4C499.8 152.8 498.4 154 497.9 155.5C496 161.1 497.3 180.1 500.4 187.8L499.2 188.2C496.2 184.7 493.3 177 489.6 172.4C481.9 162.7 474.8 172.5 483.7 185.2C486 188.5 488.2 191.9 490.2 195.3L493.4 206.9L493.5 207.4C472.7 196 463.6 184.2 440.4 178.5C376.4 162.6 349.7 296.4 489.6 245L520.2 233.8L520.7 233.6Z" fill="#FF9966"/>
<path fill-rule="evenodd" clip-rule="evenodd" d="M330.501 182.3L286.401 159.5C264.601 148.2 238.701 148.2 216.901 159.5L207.101 147.4L106.101 211.2L27.1006 321.6L45.6006 322.2C88.5006 323.7 130.201 307.9 161.501 278.5L175.201 299.6C187.301 318.2 192.101 340.5 188.901 362.4C185.501 385.3 196.701 407.9 217.001 419H364.201C373.501 419 382.301 415 388.301 407.9C394.301 400.9 397.001 391.6 395.601 382.4C391.801 357.6 382.301 333.9 367.801 313.4C340.801 275.3 327.701 229 330.501 182.3Z" fill="#333333"/>
<path fill-rule="evenodd" clip-rule="evenodd" d="M251 151.1L294.2 147.4C322.1 145 350.1 149.2 376.1 159.5C393.4 166.4 411.6 170.5 430.2 171.9C452.8 173.5 470.4 192.1 470.8 214.7C471.2 237.3 454.3 256.5 431.8 258.9C422.6 259.9 413.2 258.1 405 253.8C375.9 238.4 342.3 234 310.3 241.4L251 151.1Z" fill="#333333"/>
<path fill-rule="evenodd" clip-rule="evenodd" d="M227.701 166.7C247.801 153.2 267.201 152.2 271.001 164.6C274.801 176.9 261.601 197.9 241.501 211.4C221.401 224.9 202.001 225.9 198.201 213.5C194.301 201.2 207.601 180.2 227.701 166.7Z" fill="#ED834E"/>
<path fill-rule="evenodd" clip-rule="evenodd" d="M215.2 107.8L220.6 128.9C224.8 145.3 238.2 157.6 254.8 160.5L249.7 190.4L206.2 211.3L207.5 202.3C208.6 194.9 205.7 187.4 199.9 182.7C194.1 177.9 186.3 176.5 179.2 179L215.2 107.8Z" fill="#ED834E"/>
<path fill-rule="evenodd" clip-rule="evenodd" d="M132.3 188.5L136.7 175.6C139.9 166 139 155.5 134.1 146.7C128.3 136.4 126.5 131.5 130.2 120.2C132 114.7 121.3 114.5 115 122.1C111.6 126.2 114.7 133.7 110.6 143C91.7003 135.9 69.9003 121 56.0003 116.7C51.4003 115.3 44.4003 121.3 51.0003 126.9C57.8003 132.7 64.9003 134.3 72.0003 142C61.4003 139.5 60.1003 137.5 47.2003 133.5C38.7003 130.8 33.4003 138.3 43.5003 145.6C42.3003 146.2 41.3003 147.3 40.7003 148.6C39.9003 150.5 40.0003 152.7 41.1003 154.3C45.1003 160.2 64.2003 172.6 73.9003 175.2L73.4003 176.6C67.9003 176.9 58.3003 174.2 51.3003 174.4C36.5003 174.8 40.7003 188.6 59.4003 189.3C64.2003 189.5 69.0003 189.8 73.8003 190.3L87.2003 195.6L87.8003 195.8C61.9003 207.5 37.5003 222.6 15.3003 240.7C1.10026 251.9 -3.69974 271 3.00026 287.6C6.00026 295 8.10026 302.7 9.40026 310.6C10.0003 314.6 12.3003 318 15.7003 320.1C19.1003 322.2 23.2003 322.7 27.1003 321.5C72.1003 307.2 107.2 271.6 120.8 226.4L132.1 189L132.3 188.5Z" fill="#FF9966"/>
<path fill-rule="evenodd" clip-rule="evenodd" d="M73.7998 202.3C78.2998 200 82.8998 197.8 87.4998 195.7C92.4998 197.7 97.2998 199.6 102.1 201.3C93.7998 205.1 84.0998 205.8 74.8998 202.6L73.7998 202.3ZM132.3 188.5L136.7 175.6C139.9 166 139 155.5 134.1 146.7C133.5 145.6 132.9 144.5 132.4 143.5C133.2 149.2 131.5 154.9 127.8 159.2C124.1 163.5 118.6 166 112.9 166H104.2C119.8 172.1 129 188.3 126.1 204.8L124.4 214.5L132 189.1L132.3 188.5Z" fill="#ED834E"/>
<path fill-rule="evenodd" clip-rule="evenodd" d="M134.501 171C134.901 175.7 138.401 179.4 143.001 180.2C156.101 182.5 169.601 182.9 182.801 181.4C188.601 180.8 194.101 178.5 198.601 174.8L199.101 174.4C208.401 167 216.001 157.7 221.401 147.1C224.101 141.7 226.001 135.8 226.901 129.8C230.701 105.5 235.901 75.0999 240.101 50.8999L147.001 45.8999C145.401 52.2999 143.801 60.7999 142.401 67.1999C135.301 100.2 131.101 135.5 134.501 171Z" fill="#FF9966"/>
<path fill-rule="evenodd" clip-rule="evenodd" d="M149.5 129.7C155.9 130.9 168.4 131.5 187.5 131.4C195.7 131.4 196 135.7 195.6 138.6C194.3 147.3 190.4 155.4 184.4 161.8C177.7 169 147.4 166.3 143.2 158.4C139.5 151.3 137.9 143.4 138.6 135.4C139.3 127.8 143.6 128.6 149.5 129.7Z" fill="#BF4406"/>
<path fill-rule="evenodd" clip-rule="evenodd" d="M188.8 156.2C187.5 158.2 186 160 184.4 161.8C180.9 165.6 170.7 166.7 161.4 165.6C162.7 160.7 169.8 156.3 178.4 155.3C182.4 154.9 185.9 155.3 188.8 156.2Z" fill="#ED2113"/>
<path fill-rule="evenodd" clip-rule="evenodd" d="M149.5 129.7C155.9 130.9 168.4 131.5 187.5 131.4C195.7 131.4 196 135.7 195.6 138.6C195.5 139 195.5 139.3 195.4 139.7C188 146.6 149.3 143.7 145.2 135.8C144.1 133.7 143.2 131.5 142.5 129.3C144.3 128.7 146.7 129.2 149.5 129.7Z" fill="white"/>
<path fill-rule="evenodd" clip-rule="evenodd" d="M188.7 63.2998L186.2 75.6998C193.2 77.2998 199.4 77.9998 208.5 83.1998L215.2 74.3998C206.8 66.7998 196.7 63.2998 188.7 63.2998Z" fill="#333333"/>
<path fill-rule="evenodd" clip-rule="evenodd" d="M192.101 103.7C195.401 103.7 198.101 99.7 198.101 94.7C198.101 89.7 195.401 85.7 192.101 85.7C188.801 85.7 186.101 89.7 186.101 94.7C186.101 99.7 188.801 103.7 192.101 103.7Z" fill="#333333"/>
<path fill-rule="evenodd" clip-rule="evenodd" d="M163.5 63.4998L160.8 75.6998C155.8 75.3998 151.5 74.4998 143.8 77.0998L142.5 67.1998C150.5 62.1998 158.3 61.3998 163.5 63.4998Z" fill="#333333"/>
<path fill-rule="evenodd" clip-rule="evenodd" d="M154.8 103.7C158.1 103.7 160.8 99.7 160.8 94.7C160.8 89.7 158.1 85.7 154.8 85.7C151.5 85.7 148.8 89.7 148.8 94.7C148.8 99.7 151.5 103.7 154.8 103.7Z" fill="#333333"/>
<path fill-rule="evenodd" clip-rule="evenodd" d="M172.8 84.3999C168.5 88.1999 174 100.7 157.6 111.1C150.6 115.5 159.9 123.4 169.1 121.3C175.9 119.7 173.7 88.2999 172.8 84.3999Z" fill="#ED614E"/>
<path fill-rule="evenodd" clip-rule="evenodd" d="M142.5 67.1999L134.8 41.9999C131.3 30.4999 134.4 17.9999 142.9 9.49988C151.4 0.999885 163.9 -2.10012 175.4 1.39988L199.7 1.69988C219.5 1.89988 237.1 14.3999 243.7 33.0999L246.8 33.8999C256.6 36.2999 264 44.3999 265.6 54.3999C270.6 85.8999 254.7 116.9 226.3 131.3L230.9 95.0999H221.9L231.4 54.4999C174.8 60.6999 153.4 58.1999 146.3 50.8999L142.5 67.1999Z" fill="#333333"/>
<path fill-rule="evenodd" clip-rule="evenodd" d="M238.1 86.1C241.1 87.4 240.8 95.6 237.5 104.5C234.2 113.4 229 119.6 226 118.3C223 117 223.2 108.8 226.6 99.9C229.9 91 235.1 84.8 238.1 86.1Z" fill="#FF9966"/>
</g>
<defs>
<clipPath id="clip0_20_169">
<rect width="566.8" height="419.1" fill="white"/>
</clipPath>
</defs>
</svg>
