<svg width="896" height="352" viewBox="0 0 896 352" fill="none" xmlns="http://www.w3.org/2000/svg">
<path d="M40 0.5H224C245.815 0.5 263.5 18.1848 263.5 40V302.5H0.5V40C0.5 18.1848 18.1848 0.5 40 0.5Z" stroke="#E7E3D6"/>
<rect x="13" y="27" width="241" height="60" rx="20" fill="#FFC600"/>
<rect width="134" height="20" rx="10" transform="matrix(1 0 0 -1 73 146)" fill="#D9D9D9"/>
<rect width="165" height="20" rx="10" transform="matrix(1 0 0 -1 73 195)" fill="#D9D9D9"/>
<rect width="121" height="20" rx="10" transform="matrix(1 0 0 -1 73 247)" fill="#D9D9D9"/>
<path d="M49.5 136C49.5 144.546 42.3512 151.5 33.5 151.5C24.6488 151.5 17.5 144.546 17.5 136C17.5 127.454 24.6488 120.5 33.5 120.5C42.3512 120.5 49.5 127.454 49.5 136Z" stroke="#E7E3D6"/>
<path d="M49.5 185C49.5 193.546 42.3512 200.5 33.5 200.5C24.6488 200.5 17.5 193.546 17.5 185C17.5 176.454 24.6488 169.5 33.5 169.5C42.3512 169.5 49.5 176.454 49.5 185Z" fill="#FFC600" stroke="#E7E3D6"/>
<path d="M49.5 237C49.5 245.546 42.3512 252.5 33.5 252.5C24.6488 252.5 17.5 245.546 17.5 237C17.5 228.454 24.6488 221.5 33.5 221.5C42.3512 221.5 49.5 228.454 49.5 237Z" stroke="#E7E3D6"/>
<path d="M672 0.5H856C877.815 0.5 895.5 18.1848 895.5 40V302.5H632.5V40C632.5 18.1848 650.185 0.5 672 0.5Z" stroke="#E7E3D6"/>
<rect x="645" y="27" width="241" height="60" rx="20" fill="#2FDF65"/>
<rect width="134" height="20" rx="10" transform="matrix(1 0 0 -1 705 146)" fill="#D9D9D9"/>
<rect width="165" height="20" rx="10" transform="matrix(1 0 0 -1 705 195)" fill="#D9D9D9"/>
<rect width="121" height="20" rx="10" transform="matrix(1 0 0 -1 705 247)" fill="#D9D9D9"/>
<path d="M681.5 136C681.5 144.546 674.351 151.5 665.5 151.5C656.649 151.5 649.5 144.546 649.5 136C649.5 127.454 656.649 120.5 665.5 120.5C674.351 120.5 681.5 127.454 681.5 136Z" stroke="#E7E3D6"/>
<path d="M681.5 185C681.5 193.546 674.351 200.5 665.5 200.5C656.649 200.5 649.5 193.546 649.5 185C649.5 176.454 656.649 169.5 665.5 169.5C674.351 169.5 681.5 176.454 681.5 185Z" fill="#2FDF65" stroke="#E7E3D6"/>
<path d="M681.5 237C681.5 245.546 674.351 252.5 665.5 252.5C656.649 252.5 649.5 245.546 649.5 237C649.5 228.454 656.649 221.5 665.5 221.5C674.351 221.5 681.5 228.454 681.5 237Z" stroke="#E7E3D6"/>
<path d="M356 49.5H540C561.815 49.5 579.5 67.1848 579.5 89V351.5H316.5V89C316.5 67.1848 334.185 49.5 356 49.5Z" stroke="#E7E3D6"/>
<rect x="329" y="76" width="241" height="60" rx="20" fill="#FF893C"/>
<rect width="134" height="20" rx="10" transform="matrix(1 0 0 -1 389 195)" fill="#D9D9D9"/>
<rect width="165" height="20" rx="10" transform="matrix(1 0 0 -1 389 244)" fill="#D9D9D9"/>
<rect width="121" height="20" rx="10" transform="matrix(1 0 0 -1 389 296)" fill="#D9D9D9"/>
<path d="M365.5 185C365.5 193.546 358.351 200.5 349.5 200.5C340.649 200.5 333.5 193.546 333.5 185C333.5 176.454 340.649 169.5 349.5 169.5C358.351 169.5 365.5 176.454 365.5 185Z" stroke="#E7E3D6"/>
<path d="M365.5 234C365.5 242.546 358.351 249.5 349.5 249.5C340.649 249.5 333.5 242.546 333.5 234C333.5 225.454 340.649 218.5 349.5 218.5C358.351 218.5 365.5 225.454 365.5 234Z" fill="#FF893C" stroke="#E7E3D6"/>
<path d="M365.5 286C365.5 294.546 358.351 301.5 349.5 301.5C340.649 301.5 333.5 294.546 333.5 286C333.5 277.454 340.649 270.5 349.5 270.5C358.351 270.5 365.5 277.454 365.5 286Z" stroke="#E7E3D6"/>
</svg>
