<svg width="121" height="30" viewBox="0 0 121 30" fill="none" xmlns="http://www.w3.org/2000/svg">
<path d="M11.626 29C11.8689 28.2095 12 27.3701 12 26.5C12 21.8056 8.19442 18 3.5 18C2.6298 18 1.79054 18.132 1 18.375V3C1 1.34315 2.34315 0 4 0H36C37.6569 0 39 1.34315 39 3V26C39 27.6569 37.6569 29 36 29H11.626ZM20 21C23.3137 21 26 18.3137 26 15C26 11.6863 23.3137 9 20 9C16.6863 9 14 11.6863 14 15C14 18.3137 16.6863 21 20 21Z" fill="black"/>
<circle cx="5" cy="25" r="5" transform="rotate(180 5 25)" fill="black"/>
<path d="M54.22 8.254H56.992V23.5H54.22V16.746H47.598V23.5H44.826V8.254H47.598V14.348H54.22V8.254ZM69.9445 23.148C69.4312 23.28 68.7638 23.412 67.9425 23.544C67.1212 23.6907 66.2192 23.764 65.2365 23.764C64.3125 23.764 63.5352 23.632 62.9045 23.368C62.2885 23.104 61.7898 22.7373 61.4085 22.268C61.0418 21.7987 60.7778 21.2413 60.6165 20.596C60.4552 19.936 60.3745 19.2173 60.3745 18.44V11.994H63.0365V18.022C63.0365 19.254 63.2125 20.134 63.5645 20.662C63.9312 21.19 64.5618 21.454 65.4565 21.454C65.7792 21.454 66.1165 21.4393 66.4685 21.41C66.8352 21.3807 67.1065 21.344 67.2825 21.3V11.994H69.9445V23.148ZM80.9667 17.714C80.9667 16.5847 80.7393 15.69 80.2847 15.03C79.8447 14.37 79.1407 14.04 78.1727 14.04C77.7327 14.04 77.3147 14.106 76.9187 14.238C76.5373 14.37 76.2293 14.5167 75.9947 14.678V21.3C76.1853 21.344 76.4273 21.388 76.7207 21.432C77.0287 21.4613 77.3953 21.476 77.8207 21.476C78.8033 21.476 79.5733 21.146 80.1307 20.486C80.688 19.8113 80.9667 18.8873 80.9667 17.714ZM83.6947 17.758C83.6947 18.682 83.5553 19.518 83.2767 20.266C83.0127 20.9993 82.624 21.63 82.1107 22.158C81.612 22.686 81.0033 23.0893 80.2847 23.368C79.566 23.6467 78.752 23.786 77.8427 23.786C76.9627 23.786 76.1193 23.72 75.3127 23.588C74.5207 23.456 73.8607 23.3093 73.3327 23.148V6.868L75.9947 6.428V12.39C76.3027 12.2287 76.6767 12.082 77.1167 11.95C77.5713 11.818 78.07 11.752 78.6127 11.752C79.4193 11.752 80.138 11.8987 80.7687 12.192C81.414 12.4707 81.9493 12.874 82.3747 13.402C82.8 13.93 83.1227 14.568 83.3427 15.316C83.5773 16.0493 83.6947 16.8633 83.6947 17.758ZM89.3201 21.586C90.0241 21.586 90.5375 21.5053 90.8601 21.344C91.1828 21.168 91.3441 20.8747 91.3441 20.464C91.3441 20.0827 91.1681 19.7673 90.8161 19.518C90.4788 19.2687 89.9141 18.9973 89.1221 18.704C88.6381 18.528 88.1908 18.3447 87.7801 18.154C87.3841 17.9487 87.0395 17.714 86.7461 17.45C86.4528 17.186 86.2181 16.8707 86.0421 16.504C85.8808 16.1227 85.8001 15.6607 85.8001 15.118C85.8001 14.062 86.1888 13.2333 86.9661 12.632C87.7435 12.016 88.7995 11.708 90.1341 11.708C90.8088 11.708 91.4541 11.774 92.0701 11.906C92.6861 12.0233 93.1481 12.1407 93.4561 12.258L92.9721 14.414C92.6788 14.282 92.3048 14.1647 91.8501 14.062C91.3955 13.9447 90.8675 13.886 90.2661 13.886C89.7235 13.886 89.2835 13.9813 88.9461 14.172C88.6088 14.348 88.4401 14.6267 88.4401 15.008C88.4401 15.1987 88.4695 15.3673 88.5281 15.514C88.6015 15.6607 88.7188 15.8 88.8801 15.932C89.0415 16.0493 89.2541 16.174 89.5181 16.306C89.7821 16.4233 90.1048 16.548 90.4861 16.68C91.1168 16.9147 91.6521 17.1493 92.0921 17.384C92.5321 17.604 92.8915 17.8607 93.1701 18.154C93.4635 18.4327 93.6761 18.7553 93.8081 19.122C93.9401 19.4887 94.0061 19.9287 94.0061 20.442C94.0061 21.542 93.5955 22.378 92.7741 22.95C91.9675 23.5073 90.8088 23.786 89.2981 23.786C88.2861 23.786 87.4721 23.698 86.8561 23.522C86.2401 23.3607 85.8075 23.2287 85.5581 23.126L86.0201 20.904C86.4161 21.0653 86.8855 21.2193 87.4281 21.366C87.9855 21.5127 88.6161 21.586 89.3201 21.586ZM95.8548 17.802C95.8548 16.79 96.0015 15.9027 96.2948 15.14C96.6028 14.3773 97.0062 13.7467 97.5048 13.248C98.0035 12.7347 98.5755 12.3533 99.2208 12.104C99.8662 11.84 100.526 11.708 101.201 11.708C102.785 11.708 104.017 12.1993 104.897 13.182C105.791 14.1647 106.239 15.6313 106.239 17.582C106.239 17.7287 106.231 17.8973 106.217 18.088C106.217 18.264 106.209 18.4253 106.195 18.572H98.6048C98.6782 19.496 99.0008 20.2147 99.5728 20.728C100.159 21.2267 101.003 21.476 102.103 21.476C102.748 21.476 103.335 21.4173 103.863 21.3C104.405 21.1827 104.831 21.058 105.139 20.926L105.491 23.104C105.344 23.1773 105.139 23.258 104.875 23.346C104.625 23.4193 104.332 23.4853 103.995 23.544C103.672 23.6173 103.32 23.676 102.939 23.72C102.557 23.764 102.169 23.786 101.773 23.786C100.761 23.786 99.8808 23.6393 99.1328 23.346C98.3848 23.038 97.7688 22.62 97.2848 22.092C96.8008 21.5493 96.4415 20.9187 96.2068 20.2C95.9722 19.4667 95.8548 18.6673 95.8548 17.802ZM103.577 16.614C103.577 16.2473 103.525 15.9027 103.423 15.58C103.32 15.2427 103.166 14.9567 102.961 14.722C102.77 14.4727 102.528 14.282 102.235 14.15C101.956 14.0033 101.619 13.93 101.223 13.93C100.812 13.93 100.453 14.0107 100.145 14.172C99.8368 14.3187 99.5728 14.5167 99.3528 14.766C99.1475 15.0153 98.9862 15.3013 98.8688 15.624C98.7515 15.9467 98.6708 16.2767 98.6268 16.614H103.577ZM113.065 23.72C112.273 23.7053 111.613 23.6173 111.085 23.456C110.572 23.2947 110.161 23.0673 109.853 22.774C109.545 22.466 109.325 22.092 109.193 21.652C109.076 21.1973 109.017 20.684 109.017 20.112V6.868L111.679 6.428V19.606C111.679 19.9287 111.701 20.2 111.745 20.42C111.804 20.64 111.899 20.8307 112.031 20.992C112.163 21.1387 112.339 21.256 112.559 21.344C112.794 21.4173 113.087 21.476 113.439 21.52L113.065 23.72ZM119.596 23.72C118.804 23.7053 118.144 23.6173 117.616 23.456C117.103 23.2947 116.692 23.0673 116.384 22.774C116.076 22.466 115.856 22.092 115.724 21.652C115.607 21.1973 115.548 20.684 115.548 20.112V6.868L118.21 6.428V19.606C118.21 19.9287 118.232 20.2 118.276 20.42C118.335 20.64 118.43 20.8307 118.562 20.992C118.694 21.1387 118.87 21.256 119.09 21.344C119.325 21.4173 119.618 21.476 119.97 21.52L119.596 23.72Z" fill="black"/>
</svg>
