<svg width="121" height="30" viewBox="0 0 121 30" fill="none" xmlns="http://www.w3.org/2000/svg">
<path d="M11.626 29C11.8689 28.2095 12 27.3701 12 26.5C12 21.8056 8.19442 18 3.5 18C2.6298 18 1.79054 18.132 1 18.375V3C1 1.34315 2.34315 0 4 0H36C37.6569 0 39 1.34315 39 3V26C39 27.6569 37.6569 29 36 29H11.626ZM20 21C23.3137 21 26 18.3137 26 15C26 11.6863 23.3137 9 20 9C16.6863 9 14 11.6863 14 15C14 18.3137 16.6863 21 20 21Z" fill="black"/>
<circle cx="5" cy="25" r="5" transform="rotate(180 5 25)" fill="black"/>
<path d="M53.934 23.5C53.5527 22.9133 53.1127 22.2973 52.614 21.652C52.1153 21.0067 51.5873 20.3833 51.03 19.782C50.4873 19.1807 49.9227 18.6087 49.336 18.066C48.7493 17.5233 48.17 17.054 47.598 16.658V23.5H44.826V8.254H47.598V14.546C48.082 14.062 48.588 13.5487 49.116 13.006C49.644 12.4487 50.1647 11.8913 50.678 11.334C51.206 10.762 51.7047 10.212 52.174 9.684C52.6433 9.156 53.0687 8.67933 53.45 8.254H56.772C56.288 8.81133 55.7747 9.39067 55.232 9.992C54.6893 10.5933 54.132 11.202 53.56 11.818C52.988 12.4193 52.4087 13.0207 51.822 13.622C51.25 14.2233 50.6853 14.7953 50.128 15.338C50.744 15.8073 51.3673 16.3573 51.998 16.988C52.6433 17.604 53.274 18.2713 53.89 18.99C54.506 19.694 55.0927 20.4347 55.65 21.212C56.222 21.9747 56.7427 22.7373 57.212 23.5H53.934ZM68.0754 23.148C67.562 23.28 66.8947 23.412 66.0734 23.544C65.252 23.6907 64.35 23.764 63.3674 23.764C62.4434 23.764 61.666 23.632 61.0354 23.368C60.4194 23.104 59.9207 22.7373 59.5394 22.268C59.1727 21.7987 58.9087 21.2413 58.7474 20.596C58.586 19.936 58.5054 19.2173 58.5054 18.44V11.994H61.1674V18.022C61.1674 19.254 61.3434 20.134 61.6954 20.662C62.062 21.19 62.6927 21.454 63.5874 21.454C63.91 21.454 64.2474 21.4393 64.5994 21.41C64.966 21.3807 65.2374 21.344 65.4134 21.3V11.994H68.0754V23.148ZM74.1475 23.5H71.4855V11.994H74.1475V23.5ZM74.4335 8.628C74.4335 9.12667 74.2722 9.52267 73.9495 9.816C73.6269 10.1093 73.2455 10.256 72.8055 10.256C72.3509 10.256 71.9622 10.1093 71.6395 9.816C71.3169 9.52267 71.1555 9.12667 71.1555 8.628C71.1555 8.11467 71.3169 7.71133 71.6395 7.418C71.9622 7.12467 72.3509 6.978 72.8055 6.978C73.2455 6.978 73.6269 7.12467 73.9495 7.418C74.2722 7.71133 74.4335 8.11467 74.4335 8.628ZM85.1776 17.802C85.1776 16.614 84.9063 15.69 84.3636 15.03C83.8356 14.37 82.9776 14.04 81.7896 14.04C81.5403 14.04 81.2763 14.0547 80.9976 14.084C80.7336 14.0987 80.4696 14.1427 80.2056 14.216V20.794C80.4403 20.9553 80.7483 21.1093 81.1296 21.256C81.5256 21.388 81.9436 21.454 82.3836 21.454C83.3516 21.454 84.0556 21.124 84.4956 20.464C84.9503 19.804 85.1776 18.9167 85.1776 17.802ZM87.9056 17.758C87.9056 18.638 87.7883 19.4447 87.5536 20.178C87.3336 20.9113 87.0109 21.542 86.5856 22.07C86.1603 22.598 85.6249 23.0087 84.9796 23.302C84.3489 23.5953 83.6303 23.742 82.8236 23.742C82.2809 23.742 81.7823 23.676 81.3276 23.544C80.8729 23.412 80.4989 23.2653 80.2056 23.104V27.57H77.5436V12.368C78.0863 12.2213 78.7536 12.082 79.5456 11.95C80.3376 11.818 81.1736 11.752 82.0536 11.752C82.9629 11.752 83.7769 11.8913 84.4956 12.17C85.2143 12.4487 85.8229 12.852 86.3216 13.38C86.8349 13.8933 87.2236 14.524 87.4876 15.272C87.7663 16.0053 87.9056 16.834 87.9056 17.758ZM93.3331 23.5H90.6711V11.994H93.3331V23.5ZM93.6191 8.628C93.6191 9.12667 93.4577 9.52267 93.1351 9.816C92.8124 10.1093 92.4311 10.256 91.9911 10.256C91.5364 10.256 91.1477 10.1093 90.8251 9.816C90.5024 9.52267 90.3411 9.12667 90.3411 8.628C90.3411 8.11467 90.5024 7.71133 90.8251 7.418C91.1477 7.12467 91.5364 6.978 91.9911 6.978C92.4311 6.978 92.8124 7.12467 93.1351 7.418C93.4577 7.71133 93.6191 8.11467 93.6191 8.628ZM98.8192 17.714C98.8192 18.8873 99.0978 19.8113 99.6552 20.486C100.212 21.146 100.982 21.476 101.965 21.476C102.39 21.476 102.75 21.4613 103.043 21.432C103.351 21.388 103.6 21.344 103.791 21.3V14.7C103.556 14.5387 103.241 14.392 102.845 14.26C102.464 14.1133 102.053 14.04 101.613 14.04C100.645 14.04 99.9338 14.37 99.4792 15.03C99.0392 15.69 98.8192 16.5847 98.8192 17.714ZM106.453 23.148C105.925 23.3093 105.258 23.456 104.451 23.588C103.659 23.72 102.823 23.786 101.943 23.786C101.034 23.786 100.22 23.6467 99.5012 23.368C98.7825 23.0893 98.1665 22.6933 97.6532 22.18C97.1545 21.652 96.7658 21.0213 96.4872 20.288C96.2232 19.54 96.0912 18.704 96.0912 17.78C96.0912 16.8707 96.2012 16.0493 96.4212 15.316C96.6558 14.568 96.9932 13.93 97.4332 13.402C97.8732 12.874 98.4085 12.4707 99.0392 12.192C99.6698 11.8987 100.396 11.752 101.217 11.752C101.774 11.752 102.266 11.818 102.691 11.95C103.116 12.082 103.483 12.2287 103.791 12.39V6.868L106.453 6.428V23.148Z" fill="black"/>
</svg>
