<svg width="264" height="303" viewBox="0 0 264 303" fill="none" xmlns="http://www.w3.org/2000/svg">
<path d="M40 0.5H224C245.815 0.5 263.5 18.1848 263.5 40V302.5H0.5V40C0.5 18.1848 18.1848 0.5 40 0.5Z" stroke="#E7E3D6"/>
<rect x="13" y="27" width="241" height="60" rx="20" fill="#2FDF65"/>
<rect width="134" height="20" rx="10" transform="matrix(1 0 0 -1 73 146)" fill="#D9D9D9"/>
<rect width="165" height="20" rx="10" transform="matrix(1 0 0 -1 73 195)" fill="#D9D9D9"/>
<rect width="121" height="20" rx="10" transform="matrix(1 0 0 -1 73 247)" fill="#D9D9D9"/>
<path d="M49.5 136C49.5 144.546 42.3512 151.5 33.5 151.5C24.6488 151.5 17.5 144.546 17.5 136C17.5 127.454 24.6488 120.5 33.5 120.5C42.3512 120.5 49.5 127.454 49.5 136Z" stroke="#E7E3D6"/>
<path d="M49.5 185C49.5 193.546 42.3512 200.5 33.5 200.5C24.6488 200.5 17.5 193.546 17.5 185C17.5 176.454 24.6488 169.5 33.5 169.5C42.3512 169.5 49.5 176.454 49.5 185Z" fill="#2FDF65" stroke="#E7E3D6"/>
<path d="M49.5 237C49.5 245.546 42.3512 252.5 33.5 252.5C24.6488 252.5 17.5 245.546 17.5 237C17.5 228.454 24.6488 221.5 33.5 221.5C42.3512 221.5 49.5 228.454 49.5 237Z" stroke="#E7E3D6"/>
</svg>
