<svg width="419" height="472" viewBox="0 0 419 472" fill="none" xmlns="http://www.w3.org/2000/svg">
<path d="M60 0.5H359C391.861 0.5 418.5 27.1391 418.5 60V471.5H0.5V60C0.5 27.1391 27.1391 0.5 60 0.5Z" stroke="#E9E9E8"/>
<line x1="0.00238661" y1="102.5" x2="419.002" y2="104.5" stroke="white"/>
<path d="M151 41.5H268C274.904 41.5 280.5 47.0964 280.5 54C280.5 60.9036 274.904 66.5 268 66.5H151C144.096 66.5 138.5 60.9036 138.5 54C138.5 47.0964 144.096 41.5 151 41.5Z" fill="#E9E9E8" stroke="#D9D9D9"/>
<path d="M49.5 121.5H159.5C168.337 121.5 175.5 128.663 175.5 137.5C175.5 146.337 168.337 153.5 159.5 153.5H49.5C40.6634 153.5 33.5 146.337 33.5 137.5C33.5 128.663 40.6634 121.5 49.5 121.5Z" fill="#E9E9E8" stroke="#D9D9D9"/>
<circle cx="324.5" cy="137.5" r="16" fill="#E9E9E8" stroke="#D9D9D9"/>
<circle cx="369.5" cy="137.5" r="16" fill="#E9E9E8" stroke="#D9D9D9"/>
<path d="M26 218C26 201.431 39.4315 188 56 188H364C380.569 188 394 201.431 394 218V472H26V218Z" fill="#E9E9E8"/>
</svg>
