<svg width="1906" height="1024" viewBox="0 0 1906 1024" fill="none" xmlns="http://www.w3.org/2000/svg">
<g clip-path="url(#clip0_1_2)">
<path d="M241.5 246L805.716 1177.5H-322.716L241.5 246Z" fill="#E7E3D6"/>
<path d="M241.5 246L805.716 1177.5H-322.716L241.5 246Z" fill="#E7E3D6"/>
<path d="M241.5 246L805.716 1177.5H-322.716L241.5 246Z" fill="#E7E3D6"/>
<path d="M241.5 246L805.716 1177.5H-322.716L241.5 246Z" fill="#E7E3D6"/>
<path d="M446 423L717.932 1029H174.068L446 423Z" fill="#E7E3D6"/>
<path d="M446 423L717.932 1029H174.068L446 423Z" fill="#E7E3D6"/>
<path d="M446 423L717.932 1029H174.068L446 423Z" fill="#E7E3D6"/>
<path d="M446 423L717.932 1029H174.068L446 423Z" fill="#E7E3D6"/>
<path d="M545 254L810.87 1025H279.13L545 254Z" fill="#E7E3D6"/>
<path d="M545 254L810.87 1025H279.13L545 254Z" fill="#E7E3D6"/>
<path d="M545 254L810.87 1025H279.13L545 254Z" fill="#E7E3D6"/>
<path d="M545 254L810.87 1025H279.13L545 254Z" fill="#E7E3D6"/>
<path d="M738.5 550L922.53 1025.5H554.47L738.5 550Z" fill="#E7E3D6"/>
<path d="M738.5 550L922.53 1025.5H554.47L738.5 550Z" fill="#E7E3D6"/>
<path d="M738.5 550L922.53 1025.5H554.47L738.5 550Z" fill="#E7E3D6"/>
<path d="M738.5 550L922.53 1025.5H554.47L738.5 550Z" fill="#E7E3D6"/>
<path d="M1196.5 699L1407.38 1035H985.623L1196.5 699Z" fill="#E7E3D6"/>
<path d="M1196.5 699L1407.38 1035H985.623L1196.5 699Z" fill="#E7E3D6"/>
<path d="M1196.5 699L1407.38 1035H985.623L1196.5 699Z" fill="#E7E3D6"/>
<path d="M1196.5 699L1407.38 1035H985.623L1196.5 699Z" fill="#E7E3D6"/>
<path d="M963.5 699L1174.38 1035H752.623L963.5 699Z" fill="#E7E3D6"/>
<path d="M963.5 699L1174.38 1035H752.623L963.5 699Z" fill="#E7E3D6"/>
<path d="M963.5 699L1174.38 1035H752.623L963.5 699Z" fill="#E7E3D6"/>
<path d="M963.5 699L1174.38 1035H752.623L963.5 699Z" fill="#E7E3D6"/>
<path d="M1634 474L2136.29 1026H1131.71L1634 474Z" fill="#E7E3D6"/>
</g>
<defs>
<clipPath id="clip0_1_2">
<rect width="1906" height="1024" fill="white"/>
</clipPath>
</defs>
</svg>
